<svg xmlns="http://www.w3.org/2000/svg" viewBox="0 0 201.97 120.42"><defs><style>.cls-1,.cls-2,.cls-3{stroke:#000;stroke-miterlimit:10;}.cls-2{fill:none;}.cls-2,.cls-3{stroke-width:3px;}.cls-4{fill:#3bb25a;}.cls-5{fill:#ed542b;}.cls-6{fill:#ead82d;}</style></defs><title>first_gliph</title><g id="Layer_2" data-name="Layer 2"><g id="Create_a_palette" data-name="Create a palette"><g id="first_gliph"><g id="palette"><path class="cls-1" d="M81,77c-6.87,3-18.65,12.08-22.58,8S51.52,68,66.24,56.89,92.75,37.75,86.86,16.61,58.39-.51,50.54,4.52A143.74,143.74,0,0,0,34.83,16.61S-13.27,60.91,4.4,101.2s66.75,3,66.75,3S84.9,93.14,87.84,87.1,87.84,74,81,77ZM13,59.43c2.32-5.66,6.91-9.07,10.26-7.62s4.18,7.2,1.86,12.85-6.91,9.07-10.25,7.62S10.63,65.08,13,59.43Zm10.54,45c-3.3,1.54-8-1.74-10.47-7.32s-1.8-11.37,1.51-12.91,8,1.74,10.47,7.32S26.8,102.84,23.49,104.39ZM35.64,41.5c-2.54,3.69-6.85,5-9.63,3s-3-6.64-.45-10.32,6.85-5,9.63-3S38.18,37.81,35.64,41.5ZM47,23.85c-2.6,2-5.76,2.2-7.06.42s-.26-4.84,2.33-6.85S48,15.22,49.35,17,49.6,21.84,47,23.85Z"/></g><g id="globe"><path class="cls-2" d="M134.22,60.81V9.05a26.19,26.19,0,1,0-.56,52.37h.56Z"/><path class="cls-2" d="M130.61,9.3s-13.11,16.35,0,52.12"/><path class="cls-2" d="M124.78,10.76s-20.66,22.56,0,49"/><path class="cls-2" d="M115.6,16.59s-14.32,16.57,0,37.3"/><line class="cls-2" x1="134.22" y1="35.45" x2="107.47" y2="35.45"/><path class="cls-2" d="M134.22,29.27s-19.46-.51-26.34,2.83"/><path class="cls-2" d="M134.22,23S117.3,22.79,109,27.14"/><path class="cls-2" d="M134.22,16.59A38.1,38.1,0,0,0,110.78,23"/><path class="cls-2" d="M134.22,41s-19.46.52-26.34-2.83"/><path class="cls-2" d="M134.22,47.34s-16.92.17-25.24-4.18"/><path class="cls-2" d="M134.22,53.72a38.1,38.1,0,0,1-23.44-6.38"/><path class="cls-2" d="M134.22,60.81V9.05a26.19,26.19,0,1,1,.56,52.37h-.56Z"/><path class="cls-2" d="M137.84,9.3s13.11,16.35,0,52.12"/><path class="cls-2" d="M143.67,10.76s20.66,22.56,0,49"/><path class="cls-2" d="M152.85,16.59s14.31,16.57,0,37.3"/><line class="cls-2" x1="134.22" y1="35.45" x2="160.97" y2="35.45"/><path class="cls-2" d="M134.22,29.27s19.47-.51,26.35,2.83"/><path class="cls-2" d="M134.22,23s16.92-.18,25.24,4.17"/><path class="cls-2" d="M134.22,16.59A38.13,38.13,0,0,1,157.67,23"/><path class="cls-2" d="M134.22,41s19.47.52,26.35-2.83"/><path class="cls-2" d="M134.22,47.34s16.92.17,25.24-4.18"/><path class="cls-2" d="M134.22,53.72a38.13,38.13,0,0,0,23.45-6.38"/></g><g id="brush"><path class="cls-3" d="M84.07,115.34c-.81,1.2-2.12-.15-1.69-1.74C84,107.71,88.43,97,100.65,81.08,119.49,56.55,100.1,91.82,84.07,115.34Z"/><path d="M109.42,71.7c-.88-.93-1.49-3.43-1.15-5.42.61-3.52,3.7-2.5,5.3-7.08,1-3,.61-5.81.93-5.84.52,0,2.4,7.56.46,13.34C113.75,70.3,111,73.33,109.42,71.7Z"/></g><circle class="cls-4" cx="135.97" cy="89.5" r="5"/><circle class="cls-5" cx="143.97" cy="73.5" r="5"/><circle class="cls-6" cx="130.97" cy="78.5" r="5"/></g></g></g></svg>