<svg xmlns="http://www.w3.org/2000/svg" viewBox="0 0 78.31 82.5"><defs><style>.cls-1{fill:#fff;}.cls-1,.cls-2,.cls-3{stroke:#fff;stroke-miterlimit:10;}.cls-2,.cls-3{fill:none;}.cls-2{stroke-width:3px;}.cls-3{stroke-width:4px;}</style></defs><title>logout_icon</title><g id="Layer_2" data-name="Layer 2"><g id="Logout"><g id="logout_icon"><g id="Arrow"><path class="cls-1" d="M70.15,73.34H48.74V66.05H70.15A.92.92,0,0,1,71,67v5.35A.93.93,0,0,1,70.15,73.34Z"/><path class="cls-1" d="M46.94,61.9l-9.51,7.25a.88.88,0,0,0,0,1.52L47,77.17c1,.65,1.75.31,1.75-.78V62.64C48.74,61.48,47.93,61.15,46.94,61.9Z"/></g><g id="Globe-door"><path class="cls-2" d="M50.74,51.14V1.5c-14.4,0-26.07,11.24-26.07,25.11,0,13.7,11.38,24.83,25.52,25.11h.55Z"/><path class="cls-2" d="M47.19,1.73s-12.88,15.69,0,50"/><path class="cls-2" d="M41.46,3.14s-20.3,21.63,0,47"/><path class="cls-2" d="M26.06,36.41h-24L1.52,81h31l0-36.5c-14.06-19.88,0-35.77,0-35.77"/><line class="cls-2" x1="50.74" y1="26.81" x2="24.46" y2="26.81"/><path class="cls-2" d="M50.74,20.89s-19.12-.49-25.88,2.72"/><path class="cls-2" d="M50.74,14.84s-16.62-.16-24.8,4"/><path class="cls-2" d="M50.74,8.73a38.21,38.21,0,0,0-23,6.11"/><path class="cls-2" d="M50.74,32.17s-19.12.49-25.88-2.71"/><path class="cls-2" d="M50.74,38.22s-16.62.16-24.8-4"/><path class="cls-2" d="M50.74,44.33a38.12,38.12,0,0,1-23-6.11"/><path class="cls-2" d="M50.74,51.14V1.5c14.4,0,26.07,11.24,26.07,25.11,0,13.7-11.38,24.83-25.52,25.11h-.55Z"/><path class="cls-2" d="M54.29,1.73s12.88,15.69,0,50"/><path class="cls-2" d="M60,3.14s20.3,21.63,0,47"/><path class="cls-2" d="M69,8.73S83.1,24.62,69,44.5"/><line class="cls-2" x1="50.74" y1="26.81" x2="77.02" y2="26.81"/><path class="cls-2" d="M50.74,20.89s19.12-.49,25.88,2.72"/><path class="cls-2" d="M50.74,14.84s16.62-.16,24.79,4"/><path class="cls-2" d="M50.74,8.73a38.21,38.21,0,0,1,23,6.11"/><path class="cls-2" d="M50.74,32.17s19.12.49,25.88-2.71"/><path class="cls-2" d="M50.74,38.22s16.62.16,24.79-4"/><path class="cls-2" d="M50.74,44.33a38.12,38.12,0,0,0,23-6.11"/><line class="cls-3" x1="9.52" y1="52" x2="9.52" y2="62"/></g></g></g></g></svg>