<svg xmlns="http://www.w3.org/2000/svg" viewBox="0 0 102.34 74.09"><defs><style>.cls-1,.cls-3,.cls-4{fill:#fff;}.cls-1,.cls-2,.cls-3{stroke:#fff;stroke-miterlimit:10;}.cls-2{fill:none;}.cls-2,.cls-3{stroke-width:3px;}</style></defs><title>palette_icon</title><g id="Layer_2" data-name="Layer 2"><g id="PointsManagement"><g id="palette_icon"><g id="palette"><path class="cls-1" d="M50.88,47.34c-4.3,1.85-11.68,7.4-14.13,4.93S32.44,41.79,41.66,35,58.26,23.3,54.57,10.36,36.75-.12,31.83,3A89.43,89.43,0,0,0,22,10.36s-30.11,27.12-19,51.77S44.74,64,44.74,64s8.6-6.78,10.44-10.48S55.18,45.49,50.88,47.34ZM8.3,36.57c1.45-3.46,4.32-5.55,6.42-4.66s2.62,4.4,1.17,7.86-4.33,5.55-6.43,4.67S6.84,40,8.3,36.57Zm6.6,27.52c-2.08.94-5-1.07-6.56-4.49s-1.13-7,.94-7.9,5,1.07,6.56,4.48S17,63.14,14.9,64.09Zm7.6-38.5c-1.59,2.26-4.28,3.09-6,1.85s-1.87-4.06-.28-6.31,4.29-3.09,6-1.85S24.09,23.34,22.5,25.59Zm7.12-10.8C28,16,26,16.14,25.2,15.05s-.16-3,1.46-4.19,3.61-1.35,4.43-.26S31.24,13.56,29.62,14.79Z"/></g><g id="globe"><path class="cls-2" d="M84.22,37.41V5.73c-9.17,0-16.61,7.18-16.61,16s7.25,15.85,16.27,16h.34Z"/><path class="cls-2" d="M82,5.88s-8.21,10,0,31.91"/><path class="cls-2" d="M78.31,6.78s-12.94,13.81,0,30"/><path class="cls-2" d="M72.56,10.35s-9,10.14,0,22.83"/><line class="cls-2" x1="84.22" y1="21.89" x2="67.48" y2="21.89"/><path class="cls-2" d="M84.22,18.11S72,17.8,67.73,19.84"/><path class="cls-2" d="M84.22,14.25s-10.59-.11-15.8,2.56"/><path class="cls-2" d="M84.22,10.35a24.29,24.29,0,0,0-14.67,3.9"/><path class="cls-2" d="M84.22,25.31S72,25.62,67.73,23.58"/><path class="cls-2" d="M84.22,29.17s-10.59.1-15.8-2.56"/><path class="cls-2" d="M84.22,33.07a24.29,24.29,0,0,1-14.67-3.9"/><path class="cls-2" d="M84.22,37.41V5.73c9.18,0,16.62,7.18,16.62,16s-7.25,15.85-16.27,16h-.35Z"/><path class="cls-2" d="M86.49,5.88s8.21,10,0,31.91"/><path class="cls-2" d="M90.14,6.78s12.93,13.81,0,30"/><path class="cls-2" d="M95.89,10.35s9,10.14,0,22.83"/><line class="cls-2" x1="84.22" y1="21.89" x2="100.97" y2="21.89"/><path class="cls-2" d="M84.22,18.11s12.19-.31,16.5,1.73"/><path class="cls-2" d="M84.22,14.25s10.6-.11,15.81,2.56"/><path class="cls-2" d="M84.22,10.35a24.31,24.31,0,0,1,14.68,3.9"/><path class="cls-2" d="M84.22,25.31s12.19.31,16.5-1.73"/><path class="cls-2" d="M84.22,29.17s10.6.1,15.81-2.56"/><path class="cls-2" d="M84.22,33.07a24.31,24.31,0,0,0,14.68-3.9"/></g><g id="brush"><path class="cls-3" d="M52.83,70.79c-.51.73-1.34-.1-1.07-1.07,1-3.6,3.79-10.16,11.44-19.9C75,34.81,62.86,56.39,52.83,70.79Z"/><path class="cls-4" d="M68.7,44.08A4.4,4.4,0,0,1,68,40.76c.38-2.15,2.31-1.53,3.32-4.33.64-1.81.38-3.56.57-3.58s1.51,4.63.29,8.17C71.4,43.22,69.68,45.08,68.7,44.08Z"/></g></g></g></g></svg>