<svg xmlns="http://www.w3.org/2000/svg" viewBox="0 0 151 109.99"><defs><style>.cls-1,.cls-4{fill:#fff;}.cls-1,.cls-2,.cls-3,.cls-4{stroke:#fff;stroke-miterlimit:10;}.cls-1{stroke-width:0.25px;}.cls-2,.cls-3{fill:none;}.cls-2{stroke-width:3px;}.cls-3,.cls-4{stroke-width:4px;}</style></defs><title>Asset 20</title><g id="Layer_2" data-name="Layer 2"><g id="PointsManagement"><g id="points_management_icon"><g id="inner_text"><path class="cls-1" d="M101.88,68.14h1.49V79.5h-1.56V71l.08.5L99.1,77.92H98l-2.8-6.27.08-.66V79.5H93.71V68.14H95.2l3.34,7.5Z"/><path class="cls-1" d="M106.38,79a2.32,2.32,0,0,1-.75-1.89,2.29,2.29,0,0,1,.68-1.8,3.05,3.05,0,0,1,2.06-.6h2.3l.11,1.28h-2.4a1.41,1.41,0,0,0-.94.27,1.12,1.12,0,0,0-.31.85,1.08,1.08,0,0,0,.41.92,2.22,2.22,0,0,0,1.25.29,3.6,3.6,0,0,0,1.36-.19.65.65,0,0,0,.45-.61l.17,1.14a1.92,1.92,0,0,1-.52.54,2.34,2.34,0,0,1-.72.31,3.6,3.6,0,0,1-.91.11A3.44,3.44,0,0,1,106.38,79Zm4.22-4.64a1.74,1.74,0,0,0-.42-1.24,1.63,1.63,0,0,0-1.21-.44,3.09,3.09,0,0,0-1,.15,3,3,0,0,0-.82.41L106,72.45a3.08,3.08,0,0,1,1.22-.87,4.47,4.47,0,0,1,1.67-.3,3.81,3.81,0,0,1,1.73.35,2.47,2.47,0,0,1,1.09,1,3.33,3.33,0,0,1,.38,1.63V79.5H110.6Z"/><path class="cls-1" d="M114.54,71.39h1.59V79.5h-1.59Zm4.92,3.2a1.87,1.87,0,0,0-.44-1.33,1.67,1.67,0,0,0-1.25-.47,1.65,1.65,0,0,0-1.21.42,1.55,1.55,0,0,0-.43,1.16L116,72.81a3,3,0,0,1,1-1.14,2.41,2.41,0,0,1,1.34-.39,2.49,2.49,0,0,1,2,.86,3.7,3.7,0,0,1,.73,2.44V79.5h-1.6Z"/><path class="cls-1" d="M123.83,79a2.31,2.31,0,0,1-.74-1.89,2.25,2.25,0,0,1,.68-1.8,3,3,0,0,1,2-.6h2.31l.11,1.28h-2.41a1.36,1.36,0,0,0-.93.27,1.08,1.08,0,0,0-.31.85A1.05,1.05,0,0,0,125,78a2.18,2.18,0,0,0,1.24.29,3.66,3.66,0,0,0,1.37-.19.65.65,0,0,0,.45-.61l.16,1.14a1.79,1.79,0,0,1-.52.54,2.28,2.28,0,0,1-.71.31,3.74,3.74,0,0,1-.92.11A3.44,3.44,0,0,1,123.83,79Zm4.23-4.64a1.74,1.74,0,0,0-.43-1.24,1.62,1.62,0,0,0-1.21-.44,3.09,3.09,0,0,0-1,.15,3,3,0,0,0-.82.41l-1.16-.79a3,3,0,0,1,1.21-.87,4.49,4.49,0,0,1,1.68-.3,3.8,3.8,0,0,1,1.72.35,2.5,2.5,0,0,1,1.1,1,3.33,3.33,0,0,1,.37,1.63V79.5h-1.51Z"/><path class="cls-1" d="M133,79.26a2.53,2.53,0,0,1-.95-1.13,4.38,4.38,0,0,1-.33-1.78V74.56a4.55,4.55,0,0,1,.32-1.79,2.38,2.38,0,0,1,.93-1.13,2.7,2.7,0,0,1,1.48-.39,2.44,2.44,0,0,1,1.31.38,2.81,2.81,0,0,1,1,1.05l-.17,1.66a1.94,1.94,0,0,0-.18-.88,1.24,1.24,0,0,0-.55-.56,1.74,1.74,0,0,0-.86-.19,1.53,1.53,0,0,0-1.22.49,2,2,0,0,0-.44,1.38v1.77a2,2,0,0,0,.44,1.36,1.55,1.55,0,0,0,1.22.48,1.74,1.74,0,0,0,.86-.2,1.32,1.32,0,0,0,.55-.57,2.06,2.06,0,0,0,.18-.9l.11,1.71a2.28,2.28,0,0,1-.79,1,2.24,2.24,0,0,1-1.36.4A2.93,2.93,0,0,1,133,79.26Zm.76,3.54-.72-.34a2.67,2.67,0,0,1-1.13-1l1.08-1a2.35,2.35,0,0,0,.75.66,1.84,1.84,0,0,0,.91.23,1.87,1.87,0,0,0,1.41-.5,1.92,1.92,0,0,0,.5-1.43v-8.1h1.6v7.87a4.17,4.17,0,0,1-.41,1.91,2.73,2.73,0,0,1-1.19,1.21,4,4,0,0,1-1.89.42Z"/><path class="cls-1" d="M142.81,79.62,142,79.2A2.87,2.87,0,0,1,140.8,78a4.25,4.25,0,0,1-.42-2v-.92a4.71,4.71,0,0,1,.41-2,2.83,2.83,0,0,1,1.16-1.3,3.59,3.59,0,0,1,1.85-.44,2.9,2.9,0,0,1,1.73.5,3.15,3.15,0,0,1,1.1,1.47,6.35,6.35,0,0,1,.38,2.31v.53h-5.47V74.81h4a2.67,2.67,0,0,0-.51-1.55,1.45,1.45,0,0,0-1.18-.55,1.7,1.7,0,0,0-1.4.6,2.48,2.48,0,0,0-.5,1.68v1a2.1,2.1,0,0,0,.53,1.54,2,2,0,0,0,1.51.54,2.53,2.53,0,0,0,1-.19,2.64,2.64,0,0,0,.85-.55l1.05,1a4.46,4.46,0,0,1-1.35.89,3.9,3.9,0,0,1-1.51.32Z"/><path class="cls-1" d="M93.71,81.14h1.6V92.5h-1.6ZM94.79,91h2.57a2.71,2.71,0,0,0,2-.66,2.39,2.39,0,0,0,.69-1.84V85.15a2.42,2.42,0,0,0-.69-1.84,2.75,2.75,0,0,0-2-.65H94.79V81.14h2.52a5.22,5.22,0,0,1,2.34.48A3.32,3.32,0,0,1,101.13,83a4.55,4.55,0,0,1,.5,2.2v3.22a4.53,4.53,0,0,1-.5,2.2A3.4,3.4,0,0,1,99.65,92a5.39,5.39,0,0,1-2.34.47H94.79Z"/><path class="cls-1" d="M104.41,92a2.31,2.31,0,0,1-.74-1.89,2.25,2.25,0,0,1,.68-1.8,3,3,0,0,1,2.05-.6h2.3l.11,1.28h-2.4a1.41,1.41,0,0,0-.94.27,1.11,1.11,0,0,0-.3.85,1.05,1.05,0,0,0,.41.92,2.16,2.16,0,0,0,1.24.29,3.66,3.66,0,0,0,1.37-.19.65.65,0,0,0,.44-.61l.17,1.14a1.92,1.92,0,0,1-.52.54,2.34,2.34,0,0,1-.72.31,3.6,3.6,0,0,1-.91.11A3.44,3.44,0,0,1,104.41,92Zm4.22-4.64a1.74,1.74,0,0,0-.42-1.24,1.63,1.63,0,0,0-1.21-.44,3.09,3.09,0,0,0-1,.15,3,3,0,0,0-.82.41l-1.17-.79a3.15,3.15,0,0,1,1.22-.87,4.47,4.47,0,0,1,1.67-.3,3.81,3.81,0,0,1,1.73.35,2.47,2.47,0,0,1,1.09,1,3.33,3.33,0,0,1,.38,1.63V92.5h-1.52Z"/><path class="cls-1" d="M112,84.39h3.65v1.44H112ZM113.24,92a2.47,2.47,0,0,1-.46-1.61V82h1.6v8.38a.84.84,0,0,0,.11.46.43.43,0,0,0,.35.16h.76v1.51h-.92A1.77,1.77,0,0,1,113.24,92Z"/><path class="cls-1" d="M118.14,92a2.34,2.34,0,0,1-.74-1.89,2.29,2.29,0,0,1,.68-1.8,3,3,0,0,1,2-.6h2.31l.11,1.28h-2.41a1.38,1.38,0,0,0-.93.27,1.27,1.27,0,0,0,.1,1.77,2.2,2.2,0,0,0,1.25.29,3.6,3.6,0,0,0,1.36-.19.65.65,0,0,0,.45-.61l.16,1.14a1.79,1.79,0,0,1-.52.54,2.19,2.19,0,0,1-.71.31,3.68,3.68,0,0,1-.92.11A3.46,3.46,0,0,1,118.14,92Zm4.23-4.64a1.7,1.7,0,0,0-.43-1.24,1.59,1.59,0,0,0-1.2-.44,3.13,3.13,0,0,0-1.78.56l-1.16-.79a3.12,3.12,0,0,1,1.21-.87,4.53,4.53,0,0,1,1.68-.3,3.84,3.84,0,0,1,1.73.35,2.52,2.52,0,0,1,1.09,1,3.33,3.33,0,0,1,.37,1.63V92.5h-1.51Z"/><path class="cls-1" d="M93.71,94.14h1.6V105.5h-1.6Zm.82,5.44h3.64a1.68,1.68,0,0,0,.9-.24,1.65,1.65,0,0,0,.61-.69,2.61,2.61,0,0,0,0-2.05,1.74,1.74,0,0,0-.61-.7,1.68,1.68,0,0,0-.9-.24H94.53V94.14h3.58a3.6,3.6,0,0,1,1.79.44,3,3,0,0,1,1.2,1.22,3.83,3.83,0,0,1,.42,1.83,3.79,3.79,0,0,1-.42,1.82,3.06,3.06,0,0,1-1.2,1.22,3.7,3.7,0,0,1-1.79.43H94.53Z"/><path class="cls-1" d="M104.12,105.21A2.8,2.8,0,0,1,103,104a4.31,4.31,0,0,1-.39-1.91v-1.32a4.19,4.19,0,0,1,.39-1.89,2.76,2.76,0,0,1,1.15-1.19,4.18,4.18,0,0,1,3.61,0,2.68,2.68,0,0,1,1.14,1.19,4.06,4.06,0,0,1,.4,1.89v1.34a4.13,4.13,0,0,1-.4,1.9,2.76,2.76,0,0,1-1.14,1.2,4.18,4.18,0,0,1-3.61,0Zm3.1-1.63a2.19,2.19,0,0,0,.45-1.47v-1.34a2.14,2.14,0,0,0-.45-1.46,1.87,1.87,0,0,0-2.59,0,2.15,2.15,0,0,0-.46,1.46v1.34a2.19,2.19,0,0,0,.46,1.47,1.87,1.87,0,0,0,2.59,0Z"/><path class="cls-1" d="M111.53,94.14h1.6v1.6h-1.6Zm0,3.25h1.6v8.11h-1.6Z"/><path class="cls-1" d="M115.55,97.39h1.59v8.11h-1.59Zm4.92,3.2a1.83,1.83,0,0,0-.45-1.33,1.91,1.91,0,0,0-2.45-.05,1.51,1.51,0,0,0-.43,1.16L117,98.81a2.89,2.89,0,0,1,1-1.14,2.41,2.41,0,0,1,1.34-.39,2.49,2.49,0,0,1,2,.86,3.7,3.7,0,0,1,.72,2.44v4.92h-1.59Z"/><path class="cls-1" d="M123.86,97.39h3.66v1.44h-3.66Zm1.29,7.61a2.47,2.47,0,0,1-.45-1.61V95h1.59v8.38a.76.76,0,0,0,.12.46.41.41,0,0,0,.34.16h.77v1.51h-.92A1.81,1.81,0,0,1,125.15,105Z"/><path class="cls-1" d="M131.85,105.62l-.63-.14a5.41,5.41,0,0,1-1.17-.42,4.72,4.72,0,0,1-1-.71l1-1.16a5.44,5.44,0,0,0,1.3.75,3.47,3.47,0,0,0,1.28.25,2.82,2.82,0,0,0,1.42-.29,1,1,0,0,0,.47-.88.68.68,0,0,0-.26-.59,1.37,1.37,0,0,0-.64-.26c-.25,0-.61-.09-1.07-.12h-.39a6.22,6.22,0,0,1-1.34-.24,1.8,1.8,0,0,1-.91-.62,2.12,2.12,0,0,1-.36-1.32,2.61,2.61,0,0,1,.35-1.43,2.12,2.12,0,0,1,1-.86,4.69,4.69,0,0,1,1.75-.28,5.82,5.82,0,0,1,1.2.11,5.65,5.65,0,0,1,1.1.35,5.38,5.38,0,0,1,1,.58l-1,1.17a5.54,5.54,0,0,0-1.2-.59,3.64,3.64,0,0,0-1.15-.19,2.21,2.21,0,0,0-1.22.27,1,1,0,0,0-.41.83.59.59,0,0,0,.23.5,1.43,1.43,0,0,0,.58.22l1,.09h.3a6.78,6.78,0,0,1,1.45.23,1.9,1.9,0,0,1,1,.68A2.32,2.32,0,0,1,136,103a2.63,2.63,0,0,1-.37,1.45,2.27,2.27,0,0,1-1.13.86,5.46,5.46,0,0,1-1.9.29Z"/></g><g id="inner_image"><g id="globe_shape"><path class="cls-2" d="M56.27,90.55V52.19c-11,0-20,8.69-20,19.41S45,90.78,55.85,91h.42Z"/><path class="cls-2" d="M53.54,52.37S43.66,64.5,53.54,91"/><path class="cls-2" d="M49.15,53.46s-15.57,16.72,0,36.28"/><path class="cls-2" d="M42.23,57.78s-10.78,12.28,0,27.64"/><line class="cls-2" x1="56.27" y1="71.75" x2="36.11" y2="71.75"/><path class="cls-2" d="M56.27,67.18s-14.67-.38-19.85,2.1"/><path class="cls-2" d="M56.27,62.5s-12.75-.12-19,3.1"/><path class="cls-2" d="M56.27,57.78A29.17,29.17,0,0,0,38.6,62.5"/><path class="cls-2" d="M56.27,75.89s-14.67.38-19.85-2.09"/><path class="cls-2" d="M56.27,80.57s-12.75.12-19-3.1"/><path class="cls-2" d="M56.27,85.29A29.17,29.17,0,0,1,38.6,80.57"/><path class="cls-2" d="M56.27,90.55V52.19c11,0,20,8.69,20,19.41S67.54,90.78,56.69,91h-.42Z"/><path class="cls-2" d="M59,52.37S68.88,64.5,59,91"/><path class="cls-2" d="M63.39,53.46s15.57,16.72,0,36.28"/><path class="cls-2" d="M70.31,57.78s10.78,12.28,0,27.64"/><path class="cls-3" d="M84.49,44.27V67.85a3.85,3.85,0,0,1-3.81,3.82l-4.25.08H56.27"/><path class="cls-2" d="M56.27,67.18s14.67-.38,19.85,2.1"/><path class="cls-2" d="M56.27,62.5s12.75-.12,19,3.1"/><path class="cls-2" d="M56.27,57.78A29.17,29.17,0,0,1,73.94,62.5"/><path class="cls-2" d="M56.27,75.89s14.67.38,19.85-2.09"/><path class="cls-2" d="M56.27,80.57s12.75.12,19-3.1"/><path class="cls-2" d="M56.27,85.29a29.17,29.17,0,0,0,17.67-4.72"/></g><g id="connection_shape"><ellipse class="cls-2" cx="40.56" cy="48.1" rx="5.56" ry="5.47"/><ellipse class="cls-2" cx="62.53" cy="28.15" rx="4.73" ry="4.65"/><ellipse class="cls-2" cx="64.47" cy="44.27" rx="3.89" ry="3.83"/><ellipse class="cls-2" cx="84.63" cy="36.75" rx="7.37" ry="7.24"/><line class="cls-2" x1="46.4" y1="48.37" x2="60.58" y2="45.5"/><line class="cls-2" x1="64.75" y1="40.72" x2="62.53" y2="33.06"/><line class="cls-2" x1="67.53" y1="29.24" x2="78.93" y2="32.79"/></g></g><g id="inner_circle"><path class="cls-4" d="M115.48,42.05A48.46,48.46,0,0,0,69,13.07c-24.15,1-45.44,22.3-46.42,46.44a48.51,48.51,0,0,0,29.2,46.54,1,1,0,0,1-.41,1.91L17,108A15.05,15.05,0,0,1,2,93V17A15,15,0,0,1,17,2h85.15a15.07,15.07,0,0,1,15,14.85l.24,24.79A1,1,0,0,1,115.48,42.05Z"/></g></g></g></g></svg>