<svg xmlns="http://www.w3.org/2000/svg" viewBox="0 0 77.5 81.52"><defs><style>.cls-1{fill:#fff;stroke:#fff;stroke-miterlimit:10;}</style></defs><title>settings_icon</title><g id="Layer_2" data-name="Layer 2"><g id="Settings"><path id="settings_icon" class="cls-1" d="M77,46.1V35.42L64.17,32.73a28.11,28.11,0,0,0-2.5-6.06l6.79-11.4L61.09,7.94,51,16a25.55,25.55,0,0,0-5-2.07L43.43.5H33.15L31.3,13.94A26,26,0,0,0,26.45,16L15.67,8.24,8.41,15.71l7.32,11.14a27.81,27.81,0,0,0-2.4,5.88L.5,35.42V46.1l12.71,2.28a28.57,28.57,0,0,0,2.1,5.49L7.67,64.57l7,7.77,11-7.28h0a23.87,23.87,0,0,0,5.67,2.4l2.32,13.39,9.81.16,2.21-13.28.32-.09A25.11,25.11,0,0,0,52,65l10.54,7.68L69.61,65,62.27,53.72a28.54,28.54,0,0,0,2-5.34ZM54.42,40.55c0,9-6.93,16.29-15.47,16.29S23.47,49.55,23.47,40.55,30.4,24.26,39,24.26,54.42,31.56,54.42,40.55Z"/></g></g></svg>