<svg xmlns="http://www.w3.org/2000/svg" viewBox="0 0 201.97 120.42"><defs><style>.cls-1{stroke:#000;stroke-miterlimit:10;}</style></defs><title>third_gliph</title><g id="Layer_2" data-name="Layer 2"><g id="Create_a_palette" data-name="Create a palette"><g id="third_gliph"><g id="palette"><path class="cls-1" d="M81,77c-6.87,3-18.65,12.08-22.58,8S51.52,68,66.24,56.89,92.75,37.75,86.86,16.61,58.39-.51,50.54,4.52A143.74,143.74,0,0,0,34.83,16.61S-13.27,60.91,4.4,101.2s66.75,3,66.75,3S84.9,93.14,87.84,87.1,87.84,74,81,77ZM13,59.43c2.32-5.66,6.91-9.07,10.26-7.62s4.18,7.2,1.86,12.85-6.91,9.07-10.25,7.62S10.63,65.08,13,59.43Zm10.54,45c-3.3,1.54-8-1.74-10.47-7.32s-1.8-11.37,1.51-12.91,8,1.74,10.47,7.32S26.8,102.84,23.49,104.39ZM35.64,41.5c-2.54,3.69-6.85,5-9.63,3s-3-6.64-.45-10.32,6.85-5,9.63-3S38.18,37.81,35.64,41.5ZM47,23.85c-2.6,2-5.76,2.2-7.06.42s-.26-4.84,2.33-6.85S48,15.22,49.35,17,49.6,21.84,47,23.85Z"/></g><path class="cls-1" d="M190.79,32.5H110.66C104.78,32.5,100,36.31,100,41V65.53c0,4.68,4.79,8.47,10.69,8.47h2.39a3,3,0,0,1,.32-.56L124.45,58c1.31-1.83,3.28-1.75,4.37.18l8.75,15.47a1.92,1.92,0,0,1,.18.39h53c5.88,0,10.68-3.81,10.68-8.47V41C201.47,36.31,196.67,32.5,190.79,32.5ZM114.4,46.9c-2.66,0-4.81-1.7-4.81-3.81s2.15-3.81,4.81-3.81,4.8,1.7,4.8,3.81S117.06,46.9,114.4,46.9Zm12.82,0c-2.66,0-4.81-1.7-4.81-3.81s2.15-3.81,4.81-3.81S132,41,132,43.09,129.88,46.9,127.22,46.9Zm66.27,20.77a6.08,6.08,0,0,1-3.77,1.25H178c-2.94,0-5.34-1.91-5.34-4.24a3.8,3.8,0,0,1,1.57-3A6,6,0,0,1,178,60.45h11.75c2.94,0,5.34,1.9,5.34,4.23A3.83,3.83,0,0,1,193.49,67.67Z"/><path class="cls-1" d="M134.56,83.37h-3.09v20.86c0,3.18-2.92,5.77-6.5,5.77a6.87,6.87,0,0,1-4.59-1.7,5.4,5.4,0,0,1-1.91-4.07V83.37H116c-2.24,0-3.14-1.47-2-3.25l10.37-16.23c1.23-1.92,3.07-1.84,4.09.18l8.19,16.22C137.51,82,136.56,83.37,134.56,83.37Z"/></g></g></g></svg>