<svg xmlns="http://www.w3.org/2000/svg" viewBox="0 0 68.25 78.62"><defs><style>.cls-1{fill:#fff;stroke-width:0.25px;}.cls-1,.cls-2,.cls-3{stroke:#fff;stroke-miterlimit:10;}.cls-2{fill:none;}.cls-2,.cls-3{stroke-width:5px;}</style></defs><title>upload_points_icon</title><g id="Layer_2" data-name="Layer 2"><g id="PointsManagement"><g id="points_upload_icon"><path id="arrow" class="cls-1" d="M42,39.52h-3.1V55c0,.95-.56,1.72-1.25,1.72H30.13c-.69,0-1.25-.77-1.25-1.72V39.52h-3.1c-.35,0-.46-.31-.25-.69l7.35-13.06a1,1,0,0,1,2,0l7.34,13.06C42.41,39.21,42.3,39.52,42,39.52Z"/><g id="points"><ellipse class="cls-2" cx="14.6" cy="27.77" rx="7.75" ry="6.46"/><ellipse class="cls-2" cx="53.34" cy="28.36" rx="7.04" ry="5.88"/><ellipse class="cls-2" cx="33.62" cy="9.55" rx="8.45" ry="7.05"/><line class="cls-3" x1="20.51" y1="23.6" x2="28.86" y2="15.38"/><line class="cls-3" x1="39.41" y1="14.68" x2="49.22" y2="23.6"/></g><g id="hard"><path class="cls-1" d="M63.27,58.72H5c-2.67,0-4.85,1.78-4.85,4V74.54c0,2.18,2.18,4,4.85,4H63.27c2.67,0,4.86-1.78,4.86-4V62.68C68.13,60.5,65.94,58.72,63.27,58.72ZM9.84,67.62a1.11,1.11,0,0,1-1.21,1,1.11,1.11,0,0,1-1.22-1v-4a1.1,1.1,0,0,1,1.22-1,1.1,1.1,0,0,1,1.21,1Zm4.86,0a1.12,1.12,0,0,1-1.22,1,1.11,1.11,0,0,1-1.21-1v-4a1.1,1.1,0,0,1,1.21-1,1.11,1.11,0,0,1,1.22,1Zm4.85,0a1.11,1.11,0,0,1-1.21,1,1.11,1.11,0,0,1-1.21-1v-4a1.1,1.1,0,0,1,1.21-1,1.1,1.1,0,0,1,1.21,1Z"/></g></g></g></g></svg>