<svg xmlns="http://www.w3.org/2000/svg" viewBox="0 0 86.27 69"><defs><style>.cls-1{stroke:#000;stroke-miterlimit:10;}</style></defs><title>user_palette_icon</title><g id="Layer_2" data-name="Layer 2"><g id="User"><g id="user_palette_icon"><ellipse class="cls-1" cx="34.79" cy="24.8" rx="24.1" ry="24.3"/><path class="cls-1" d="M57.31,51h-45A11.86,11.86,0,0,0,.5,62.84v65.68H35.34a19.88,19.88,0,0,1-1.24-2.3C24.76,106,50.19,83.79,50.19,83.79a142.91,142.91,0,0,1,11.48-8.54c1.33-.8,2.27-1.92,3.72-2.52L69.09,70V62.84A11.87,11.87,0,0,0,57.31,51Z"/><g id="palette_icon"><path class="cls-1" d="M90.34,117.49c-1.87.76-4.32,2.16-6.7,3.35-3.24,1.62-6.38,2.83-7.84,1.45-2.53-2.4-4.42-10.18,5.06-16.78l2.79-1.93c8.1-5.69,13.89-10.71,10.49-22a12.59,12.59,0,0,0-10.49-9.32,20.9,20.9,0,0,0-12.9,2.14,91.85,91.85,0,0,0-10.12,7.18s-31,26.35-19.6,50.31a25.78,25.78,0,0,0,1.52,2.72C55,154,84,133.66,84,133.66s8.85-6.58,10.75-10.17S94.77,115.7,90.34,117.49ZM65.43,82c1.68-1.19,3.71-1.3,4.55-.25s.17,2.88-1.5,4.08-3.72,1.31-4.55.25S63.76,83.24,65.43,82ZM54.67,92c1.63-2.2,4.4-3,6.2-1.81s1.92,4,.28,6.14-4.4,3-6.2,1.81S53,94.21,54.67,92Zm-8.13,15c1.49-3.37,4.45-5.39,6.61-4.53s2.7,4.28,1.21,7.64-4.46,5.39-6.62,4.54S45.05,110.39,46.54,107Zm1,14.71c2.13-.92,5.15,1,6.75,4.35s1.15,6.75-1,7.68-5.15-1-6.74-4.35S45.43,122.66,47.56,121.74Z"/></g></g></g></g></svg>