<svg xmlns="http://www.w3.org/2000/svg" viewBox="0 0 96.35 90"><defs><style>.cls-1{fill:#fff;}</style></defs><title>bar_plot</title><g id="Layer_2" data-name="Layer 2"><g id="Close"><rect class="cls-1" x="20.5" y="45.5" width="15" height="44"/><path class="cls-1" d="M35,46V89H21V46H35m1-1H20V90H36V45Z"/><rect class="cls-1" x="41.88" y="30" width="14.24" height="59"/><path class="cls-1" d="M55.62,30.5v58H42.38v-58H55.62m1-1H41.38v60H56.62v-60Z"/><rect class="cls-1" x="62.52" y="15" width="12.95" height="74"/><path class="cls-1" d="M75,15.5v73H63v-73H75m1-1H62v75H76v-75Z"/><rect class="cls-1" x="82.15" y="0.5" width="13.69" height="89"/><path class="cls-1" d="M95.35,1V89H82.65V1h12.7m1-1H81.65V90h14.7V0Z"/><rect class="cls-1" x="0.5" y="60.5" width="14" height="29"/><path class="cls-1" d="M14,61V89H1V61H14m1-1H0V90H15V60Z"/></g></g></svg>