<svg xmlns="http://www.w3.org/2000/svg" viewBox="0 0 98.82 107"><defs><style>.cls-1,.cls-3{fill:none;stroke:#fff;}.cls-1{stroke-miterlimit:10;stroke-width:3px;}.cls-2{fill:#fff;}.cls-3{stroke-linecap:round;stroke-linejoin:round;stroke-width:8px;stroke-dasharray:15 20 15 20 16 20;}</style></defs><title>cluster_icon</title><g id="Layer_2" data-name="Layer 2"><g id="Cluster"><path class="cls-1" d="M75.17,105.5V60.82a22.35,22.35,0,0,0-.46,44.68"/><path class="cls-1" d="M72.16,61s-10.95,14,0,44.47"/><path class="cls-1" d="M67.29,62.28s-17.24,19.25,0,41.77"/><path class="cls-1" d="M59.63,67.25s-12,14.14,0,31.82"/><line class="cls-1" x1="75.17" y1="83.34" x2="52.85" y2="83.34"/><path class="cls-1" d="M75.17,78.07s-16.24-.43-22,2.42"/><path class="cls-1" d="M75.17,72.69s-14.12-.14-21.06,3.57"/><path class="cls-1" d="M75.17,67.25a31.26,31.26,0,0,0-19.56,5.44"/><path class="cls-1" d="M75.17,88.11s-16.24.44-22-2.42"/><path class="cls-1" d="M75.17,93.49s-14.12.15-21.06-3.57"/><path class="cls-1" d="M75.17,98.93a31.26,31.26,0,0,1-19.56-5.44"/><path class="cls-1" d="M75.17,105.5V60.82a22.35,22.35,0,0,1,.47,44.68"/><path class="cls-1" d="M78.19,61s11,14,0,44.47"/><path class="cls-1" d="M83.06,62.28s17.24,19.25,0,41.77"/><path class="cls-1" d="M90.72,67.25s12,14.14,0,31.82"/><line class="cls-1" x1="75.17" y1="83.34" x2="97.5" y2="83.34"/><path class="cls-1" d="M75.17,78.07s16.25-.43,22,2.42"/><path class="cls-1" d="M75.17,72.69s14.12-.14,21.07,3.57"/><path class="cls-1" d="M75.17,67.25a31.28,31.28,0,0,1,19.57,5.44"/><path class="cls-1" d="M75.17,88.11s16.25.44,22-2.42"/><path class="cls-1" d="M75.17,93.49s14.12.15,21.07-3.57"/><path class="cls-1" d="M75.17,98.93a31.28,31.28,0,0,0,19.57-5.44"/><path class="cls-2" d="M24.48,40.35a8.7,8.7,0,1,1,8.9-8.7A8.81,8.81,0,0,1,24.48,40.35Z"/><path class="cls-2" d="M24.48,23.45a8.2,8.2,0,1,1-8.41,8.2,8.31,8.31,0,0,1,8.41-8.2m0-1a9.2,9.2,0,1,0,9.4,9.2,9.31,9.31,0,0,0-9.4-9.2Z"/><path class="cls-2" d="M52,39.3a8.19,8.19,0,1,1,8.38-8.19A8.3,8.3,0,0,1,52,39.3Z"/><path class="cls-2" d="M52,23.42a7.69,7.69,0,1,1-7.89,7.69A7.79,7.79,0,0,1,52,23.42m0-1a8.69,8.69,0,1,0,8.88,8.69A8.79,8.79,0,0,0,52,22.42Z"/><path class="cls-2" d="M42.69,65a8.7,8.7,0,1,1,8.91-8.7A8.81,8.81,0,0,1,42.69,65Z"/><path class="cls-2" d="M42.69,48.13a8.2,8.2,0,1,1-8.4,8.2,8.31,8.31,0,0,1,8.4-8.2m0-1a9.2,9.2,0,1,0,9.41,9.2,9.3,9.3,0,0,0-9.41-9.2Z"/><rect class="cls-3" x="4" y="4" width="69.84" height="71.72" rx="34.92"/></g></g></svg>