<svg xmlns="http://www.w3.org/2000/svg" viewBox="0 0 50 60"><title>delete_black_icon</title><g id="Layer_2" data-name="Layer 2"><g id="Delete"><path d="M6.32,59.5a1.7,1.7,0,0,1-1.6-1.77V13.14H3.37A3,3,0,0,1,.5,10a3.26,3.26,0,0,1,.85-2.23,2.77,2.77,0,0,1,2-.91H8.09V4.55c0-2.39,1.35-4,3.29-4H31.2a3.89,3.89,0,0,1,3.71,4.05V6.86h4.72A3,3,0,0,1,42.5,10a3,3,0,0,1-2.87,3.14h-.92V57.73A1.71,1.71,0,0,1,37.1,59.5ZM29.93,16.77a2.26,2.26,0,0,0-2.18,2.32v30a2.19,2.19,0,1,0,4.37,0v-30a2.35,2.35,0,0,0-.63-1.62A2.12,2.12,0,0,0,29.93,16.77Zm-8.43,0a2.26,2.26,0,0,0-2.19,2.32v30a2.26,2.26,0,0,0,2.19,2.32h.42a2.26,2.26,0,0,0,2.19-2.32v-30a2.26,2.26,0,0,0-2.19-2.32Zm-8.85,0a2.26,2.26,0,0,0-2.19,2.32v30a2.26,2.26,0,0,0,2.19,2.32h.42a2.26,2.26,0,0,0,2.18-2.32v-30a2.26,2.26,0,0,0-2.18-2.32ZM11.3,6.86H31.7V2.68H11.3Z"/><path d="M31.2,1a3.4,3.4,0,0,1,3.21,3.55V7.36h5.22A2.52,2.52,0,0,1,42,10a2.52,2.52,0,0,1-2.37,2.64H38.21V57.73A1.2,1.2,0,0,1,37.1,59H6.32a1.19,1.19,0,0,1-1.1-1.27V12.64H3.37A2.52,2.52,0,0,1,1,10a2.78,2.78,0,0,1,.72-1.89,2.25,2.25,0,0,1,1.65-.75H8.59V4.55C8.59,2.84,9.46,1,11.38,1H31.2M10.8,7.36H32.2V2.18H10.8V7.36M29.93,51.91a2.77,2.77,0,0,0,2.69-2.82v-30a2.89,2.89,0,0,0-.77-2,2.59,2.59,0,0,0-1.92-.85,2.76,2.76,0,0,0-2.68,2.82v30a2.76,2.76,0,0,0,2.68,2.82m-8.43,0h.42a2.77,2.77,0,0,0,2.69-2.82v-30a2.77,2.77,0,0,0-2.69-2.82H21.5a2.77,2.77,0,0,0-2.69,2.82v30a2.77,2.77,0,0,0,2.69,2.82m-8.85,0h.42a2.76,2.76,0,0,0,2.68-2.82v-30a2.76,2.76,0,0,0-2.68-2.82h-.42A2.77,2.77,0,0,0,10,19.09v30a2.77,2.77,0,0,0,2.69,2.82M31.2,0H11.38C9.06,0,7.59,2,7.59,4.55V6.36H3.37A3.23,3.23,0,0,0,1,7.43,3.78,3.78,0,0,0,0,10a3.51,3.51,0,0,0,3.37,3.64h.85V57.73A2.19,2.19,0,0,0,6.32,60H37.1a2.2,2.2,0,0,0,2.11-2.27V13.64h.42A3.51,3.51,0,0,0,43,10a3.51,3.51,0,0,0-3.37-3.64H35.41V4.55A4.4,4.4,0,0,0,31.2,0ZM11.8,6.36V3.18H31.2V6.36ZM29.93,50.91a1.75,1.75,0,0,1-1.68-1.82v-30a1.76,1.76,0,0,1,1.68-1.82,1.63,1.63,0,0,1,1.19.53,1.9,1.9,0,0,1,.5,1.29v30a1.76,1.76,0,0,1-1.69,1.82Zm-8.43,0a1.76,1.76,0,0,1-1.69-1.82v-30a1.76,1.76,0,0,1,1.69-1.82h.42a1.76,1.76,0,0,1,1.69,1.82v30a1.76,1.76,0,0,1-1.69,1.82Zm-8.85,0A1.76,1.76,0,0,1,11,49.09v-30a1.76,1.76,0,0,1,1.69-1.82h.42a1.76,1.76,0,0,1,1.68,1.82v30a1.75,1.75,0,0,1-1.68,1.82Z"/></g></g></svg>