<svg xmlns="http://www.w3.org/2000/svg" viewBox="0 0 46 53.81"><defs><style>.cls-1,.cls-2,.cls-3{stroke:#000;stroke-miterlimit:10;}.cls-2{fill:none;stroke-width:7px;}.cls-3{stroke-width:3px;}</style></defs><title>edit_black_icon</title><g id="Layer_2" data-name="Layer 2"><g id="Edit"><polygon class="cls-1" points="28.41 18 47.05 3.72 51.17 12.07 32.53 26.35 28.41 18"/><path class="cls-1" d="M49.5,2.31l1.32-1c.56-.42,1.43.08,2,1.13l2.44,4.93c.41.84.38,1.8-.06,2.14l-1.52,1.16Z"/><polygon class="cls-1" points="30.07 27.76 30.01 27.8 30.16 27.95 23.16 27.03 25.86 19.22 30.07 27.76"/><polyline class="cls-2" points="34.79 32.12 34.79 50.31 3.5 50.31 3.5 3.5 34.79 3.5"/><line class="cls-3" x1="9.98" y1="13.19" x2="19.24" y2="13.19"/><line class="cls-3" x1="9.98" y1="21.03" x2="19.24" y2="21.03"/><line class="cls-3" x1="10.72" y1="38.09" x2="28.87" y2="38.09"/></g></g></svg>