<svg xmlns="http://www.w3.org/2000/svg" viewBox="0 0 88.61 47.99"><defs><style>.e_cls-1{fill:#fff;}.e_cls-2{fill:none;stroke:#fff;stroke-miterlimit:10;stroke-width:5px;}</style></defs><title>eye_icon</title><g id="Layer_2" data-name="Layer 2"><g id="Eye"><path class="e_cls-1" d="M44,41.25c-8.14,0-14.75-7.56-15-17.21,0-.14,0-.25,0-.36v-.31c0-9.62,6.59-17.63,14.68-17.87h.72c8.13.24,14.72,8.25,14.72,17.87v.49C58.87,33.42,52.11,41.25,44,41.25Z"/><path class="e_cls-1" d="M44.11,8.49h.18c6.49.19,11.77,6.86,11.77,14.87v.43c-.19,8-5.59,14.45-12.06,14.45S32.19,31.83,31.94,23.91v-.54c0-8,5.28-14.68,11.77-14.87h.4m-.11-6h-.46c-9.77.29-17.6,9.52-17.6,20.87v.31c0,.15,0,.3,0,.45C26.3,35.31,34.25,44.25,44,44.25s17.83-9.08,18.06-20.39v-.49C62.06,12,54.23,2.79,44.46,2.5Z"/><path class="e_cls-2" d="M85.52,23.68S69.88,45.49,43.73,45.49,3,23.68,3,23.68,17.41,2.74,43.27,2.5c-9.77.29-17.6,9.52-17.6,20.87v.31c0,.15,0,.3,0,.45.35,11.18,8.3,20.12,18,20.12s17.83-9.08,18.06-20.39v-.49C61.79,12,54,2.79,44.19,2.5,70.07,2.74,85.52,23.68,85.52,23.68Z"/></g></g></svg>