<svg xmlns="http://www.w3.org/2000/svg" viewBox="0 0 68.25 78.68"><defs><style>.cls-1{stroke:#fff;fill:#fff;stroke-miterlimit:10;stroke-width:0.25px;}</style></defs><title>geoserver_upload_icon</title><g id="Layer_2" data-name="Layer 2"><g id="PointsManagement"><g id="geoserver_upload_icon"><path class="cls-1" d="M41.47,41.57v.07l.08-.07Zm15.37-24c-1.2.53-3.76,1.41-4.3-.3-.7-2.26-4.95-1.7-4.95-1.13s2.13.57,0,2.26-4.24-1.13-4.24-1.13c.72-5.09-4.94-5.09-4.94-5.09.7,3.39-2.83,2.83-4.25,2.83s.72-1.7,1.42-2.26-1.42-1.14-1.42-1.14c4.25-.56,5.66-2.26,5.66-2.26-3.54-2.83,2.83-4,2.83-4L55.59,15.79a10.94,10.94,0,0,0-1.31-1.33L41.42,3.34a11.32,11.32,0,0,0-1.68-1.23,2.31,2.31,0,0,1-.56,2.2c-4,5.69-7.9,2.44-7.9,2.44s3.95-4.87,0-3.24-3.17-2.44-3.17-2.44a38.69,38.69,0,0,1,8.4-.42A14.65,14.65,0,0,0,22.82,3.34l-2.25,2c.59,0,7,.32,4.06,1.71-3.09,1.47-2,5.29-2,5.29s4.75-.26,5.64,1-4.68,1.54-5.37,2.87,2.48,1.16,3.45,3.7-3.07,1.45-3.07,1.45.5-3.9-3.37-2.4-1.31,4-1.31,4S29.05,24.22,26,26.33s-9.89,6.35-9.89,6.35l-2.48-1.16,1.41-2.66c.7-1.33-4.11-1.71-1.91-4.42s2.75-6-.43-5.8A6.43,6.43,0,0,1,7.84,17l12-11L10,14.46a10.35,10.35,0,0,0,0,16.1L22.82,41.68a13.52,13.52,0,0,0,2.85,1.88h0l2.4-.56V41.57H23.91c-.48,0-.63-.46-.33-1l8.2-15.72c-3.81,0-3.05-2.62-3.05-2.62,2.3-9.81,13-3.27,13-3.27,3.82-.65,3.82,2,3.82,2s-5.37,2-3.82,5.24c1.25,2.69.95,3.17-.48,5.44l3.68,7,8.37-7.25-1.51,1.17s-1.78-2.05-6.19-1.37-1.76-2-1.76-2C50.73,22.06,55,27.2,56,28.73A10.05,10.05,0,0,0,56.84,17.61Z"/><g id="hard"><path class="cls-1" d="M63.27,58.78H5c-2.67,0-4.85,1.78-4.85,3.95V74.6c0,2.18,2.18,4,4.85,4H63.27c2.67,0,4.86-1.78,4.86-4V62.73C68.13,60.56,65.94,58.78,63.27,58.78ZM9.84,67.68a1.11,1.11,0,0,1-1.21,1,1.11,1.11,0,0,1-1.22-1v-4a1.11,1.11,0,0,1,1.22-1,1.11,1.11,0,0,1,1.21,1Zm4.86,0a1.12,1.12,0,0,1-1.22,1,1.11,1.11,0,0,1-1.21-1v-4a1.11,1.11,0,0,1,1.21-1,1.12,1.12,0,0,1,1.22,1Zm4.85,0a1.11,1.11,0,0,1-1.21,1,1.11,1.11,0,0,1-1.21-1v-4a1.11,1.11,0,0,1,1.21-1,1.11,1.11,0,0,1,1.21,1Z"/></g><path id="arrow" class="cls-1" d="M43,39.58h-3.1v15.5c0,.94-.56,1.72-1.25,1.72H31.13c-.69,0-1.25-.78-1.25-1.72V39.58h-3.1c-.35,0-.46-.31-.25-.7l7.35-13.05a1,1,0,0,1,2,0l7.34,13.05C43.41,39.27,43.3,39.58,43,39.58Z"/></g></g></g></svg>