<svg xmlns="http://www.w3.org/2000/svg" viewBox="0 0 58.12 78.06"><defs><style>.cls-1,.cls-2,.cls-3{fill:#fff;}.cls-1,.cls-3{stroke:#fff;stroke-miterlimit:10;}.cls-3{stroke-width:0.25px;}</style></defs><title>geoserver_palette_icon</title><g id="Layer_2" data-name="Layer 2"><g id="Palette"><g id="geoserver_palette_icon"><path class="cls-1" d="M49.74,51.8s-5.4-4.87-8.3-5.87c-1.95-.68-4.09-.4-4.83.61a1.59,1.59,0,0,0,0,1.77l.11.2c1.51,2.45,5.93,6.62,4.06,8.08-.77.6-.13,1.39-2,1.47h-1c.15,2.48-1.9,2.34-2.82,2.34H24.88a2.71,2.71,0,0,1-2.12-2.34v-8C19,46.88,15.32,45.22,7.94,46.93-2,49.26.09,57.39,2.57,60.18a57.52,57.52,0,0,0,5.9,5.56S30,82.73,49,76,49.74,51.8,49.74,51.8Zm-37.68,12A3.06,3.06,0,0,1,8.78,63c-1-.92-1.1-2.06-.27-2.55a3.06,3.06,0,0,1,3.28.79C12.77,62.2,12.9,63.34,12.06,63.83Zm9.77,4.85c-.93,1-3.12,1.14-4.9.25s-2.46-2.42-1.53-3.45,3.12-1.14,4.9-.26S22.77,67.65,21.83,68.68Zm13.31,3.79c-.65,1.22-3.38,1.58-6.08.79s-4.39-2.41-3.73-3.64,3.38-1.57,6.09-.79S35.8,71.25,35.14,72.47Zm11.8.42c-2.63,1-5.38.75-6.15-.43s.75-2.9,3.37-3.86,5.38-.75,6.16.43S49.57,71.94,46.94,72.89Z"/><path class="cls-2" d="M36.61,41.57v.07l.08-.07ZM52,17.61c-1.21.53-3.77,1.41-4.3-.3-.71-2.26-5-1.7-5-1.13s2.12.57,0,2.26-4.24-1.13-4.24-1.13c.71-5.09-5-5.09-5-5.09.71,3.39-2.83,2.83-4.24,2.83s.71-1.7,1.41-2.26-1.41-1.14-1.41-1.14C33.54,11.09,35,9.39,35,9.39c-3.54-2.83,2.83-4,2.83-4L50.73,15.79a11.83,11.83,0,0,0-1.32-1.33L36.56,3.34a12.47,12.47,0,0,0-1.68-1.23,2.31,2.31,0,0,1-.56,2.2C30.37,10,26.41,6.75,26.41,6.75s4-4.87,0-3.24-3.16-2.44-3.16-2.44A38.63,38.63,0,0,1,31.64.65,14.65,14.65,0,0,0,18,3.34l-2.25,2c.6,0,7,.32,4.06,1.71-3.08,1.47-2,5.29-2,5.29s4.75-.26,5.64,1S18.73,14.82,18,16.15s2.48,1.16,3.46,3.7-3.08,1.45-3.08,1.45.51-3.9-3.36-2.4-1.31,4-1.31,4,10.45,1.37,7.42,3.48-9.89,6.35-9.89,6.35L8.8,31.52s.7-1.32,1.4-2.66-4.11-1.71-1.91-4.42,2.75-6-.42-5.8A6.45,6.45,0,0,1,3,17l12-11L5.1,14.46a10.35,10.35,0,0,0,0,16.1L18,41.68a13.33,13.33,0,0,0,2.86,1.88h0L23.21,43V41.57H19c-.47,0-.62-.46-.33-1l8.2-15.72c-3.8,0-3-2.62-3-2.62,2.3-9.81,13-3.27,13-3.27,3.82-.65,3.82,2,3.82,2s-5.36,2-3.82,5.24c1.25,2.69,1,3.17-.47,5.44l3.67,7,8.37-7.25L47,32.54s-1.77-2.05-6.19-1.37-1.76-2-1.76-2c6.86-7.07,11.09-1.93,12.11-.4A10.07,10.07,0,0,0,52,17.61Z"/><path id="arrow" class="cls-3" d="M38.08,40.58H35v15.5c0,.94-.56,1.72-1.24,1.72H26.26C25.58,57.8,25,57,25,56.08V40.58h-3.1c-.35,0-.46-.31-.25-.7L29,26.83c.54-1,1.42-1,2,0l7.34,13.05C38.55,40.27,38.44,40.58,38.08,40.58Z"/></g></g></g></svg>