<svg xmlns="http://www.w3.org/2000/svg" viewBox="0 0 75 74"><defs><style>.cls-1{fill:#fff;}</style></defs><title>info_icon_1</title><g id="Layer_2" data-name="Layer 2"><g id="Close"><path class="cls-1" d="M37.5,0C16.79,0,0,16.56,0,37S16.79,74,37.5,74,75,57.44,75,37,58.21,0,37.5,0ZM34.39,16.57a4.92,4.92,0,0,1,6.94,0,4.86,4.86,0,0,1,0,6.91,5,5,0,0,1-7,0,4.78,4.78,0,0,1,0-6.89ZM46.27,54.13H29.62V49h1.44a6.62,6.62,0,0,0,1.79-.14,1,1,0,0,0,.57-.5,3.13,3.13,0,0,0,.2-1.37V34.31h-4v-5a31,31,0,0,0,4.09-.46A28,28,0,0,0,37.19,28,16,16,0,0,0,39.64,27H42.2V46.61a5.15,5.15,0,0,0,.16,1.73,1,1,0,0,0,.59.49,5.9,5.9,0,0,0,1.86.17h1.46Z"/></g></g></svg>