<svg xmlns="http://www.w3.org/2000/svg" viewBox="0 0 70 68.97"><defs><style>.cls-1,.cls-2,.cls-3,.cls-4{fill:none;stroke-miterlimit:10;}.cls-1{stroke:#29abe2;}.cls-1,.cls-2,.cls-3{stroke-width:3px;}.cls-2{stroke:#0071bc;}.cls-3,.cls-4{stroke:#2e3192;}.cls-4{stroke-width:2px;}</style></defs><title>loading_icon</title><g id="Layer_2" data-name="Layer 2"><g id="Loading"><path id="outer_circle" class="cls-1" d="M44.48,1.83a33.5,33.5,0,1,1-17.61-.37"/><path id="middle_circle" class="cls-2" d="M28,5.69A29.14,29.14,0,1,0,43.26,6"/><path id="inner_circle" class="cls-3" d="M29.13,10.2A24.49,24.49,0,1,0,42,10.5"/><g id="Globe"><path class="cls-4" d="M34.75,18V49h-.34a15.06,15.06,0,0,1-1.91-.15h0A16.11,16.11,0,0,1,29,48a15.88,15.88,0,0,1-5.58-3.45h0a15.15,15.15,0,0,1-4.79-10.91v-.12a14,14,0,0,1,.12-1.85,14.94,14.94,0,0,1,1.76-5.41,15.22,15.22,0,0,1,2.82-3.67.34.34,0,0,0,.06-.06l0-.05A16.28,16.28,0,0,1,29,19l0,0a16.41,16.41,0,0,1,3.53-.86A16.08,16.08,0,0,1,34.75,18Z"/><path class="cls-4" d="M32.55,49a.88.88,0,0,1,0-.15"/><path class="cls-4" d="M32.49,48.82c-.58-1.56-1.07-3-1.48-4.48s-.73-2.64-1-3.88-.48-2.46-.64-3.61-.26-2.23-.31-3.26c-.07-1.28-.07-2.48,0-3.59a28.15,28.15,0,0,1,.36-3.56,25.56,25.56,0,0,1,.94-3.85,15.31,15.31,0,0,1,2.19-4.47h0"/><path class="cls-4" d="M29,48a28.35,28.35,0,0,1-3.13-4.76,22.32,22.32,0,0,1-1.45-3.47,20,20,0,0,1-.78-3.31,18.46,18.46,0,0,1-.22-2.83,20.24,20.24,0,0,1,.24-3.16,21.64,21.64,0,0,1,.79-3.33,24.36,24.36,0,0,1,1.43-3.46A22.16,22.16,0,0,1,29,19"/><path class="cls-4" d="M23.33,22.54a16.93,16.93,0,0,0-2,3.15h0a17.29,17.29,0,0,0-1.66,5.55,14.87,14.87,0,0,0-.14,2.34,16,16,0,0,0,.16,2,17.48,17.48,0,0,0,.68,3,18.69,18.69,0,0,0,1.06,2.62,23.51,23.51,0,0,0,2,3.28"/><line class="cls-4" x1="34.75" y1="33.59" x2="18.5" y2="33.59"/><path class="cls-4" d="M34.75,29.93s-11.83-.3-16,1.68"/><path class="cls-4" d="M34.75,26.2s-10.28-.1-15.33,2.47"/><path class="cls-4" d="M34.75,22.43A23.66,23.66,0,0,0,20.51,26.2"/><path class="cls-4" d="M34.75,36.9s-11.83.3-16-1.68"/><path class="cls-4" d="M34.75,40.63s-10.28.1-15.33-2.47"/><path class="cls-4" d="M34.75,44.41a23.63,23.63,0,0,1-14.24-3.78"/><path class="cls-4" d="M50.87,33.47v.12A15.15,15.15,0,0,1,46.08,44.5h0A15.88,15.88,0,0,1,40.49,48a16.11,16.11,0,0,1-3.48.86h0a15.06,15.06,0,0,1-1.91.15h-.34V18a16.08,16.08,0,0,1,2.21.15,16.41,16.41,0,0,1,3.53.86l0,0a16.28,16.28,0,0,1,5.56,3.43l0,.05a.34.34,0,0,0,.06.06A15.22,15.22,0,0,1,49,26.21a14.94,14.94,0,0,1,1.76,5.41A14,14,0,0,1,50.87,33.47Z"/><path class="cls-4" d="M37,48.82A.88.88,0,0,1,37,49"/><path class="cls-4" d="M37,48.82c.58-1.56,1.07-3,1.48-4.48s.73-2.64,1-3.88.48-2.46.64-3.61.26-2.23.31-3.26c.07-1.28.07-2.48,0-3.59a28.15,28.15,0,0,0-.36-3.56,25.56,25.56,0,0,0-.94-3.85A15.31,15.31,0,0,0,37,18.12h0"/><path class="cls-4" d="M40.49,48a28.35,28.35,0,0,0,3.13-4.76,22.32,22.32,0,0,0,1.45-3.47,20,20,0,0,0,.78-3.31,18.46,18.46,0,0,0,.22-2.83,20.24,20.24,0,0,0-.24-3.16A21.64,21.64,0,0,0,45,27.1a24.36,24.36,0,0,0-1.43-3.46A22.16,22.16,0,0,0,40.51,19"/><path class="cls-4" d="M46.17,22.54a16.93,16.93,0,0,1,2,3.15h0a17.29,17.29,0,0,1,1.66,5.55,14.87,14.87,0,0,1,.14,2.34,16,16,0,0,1-.16,2,17.48,17.48,0,0,1-.68,3A18.69,18.69,0,0,1,48,41.22a23.51,23.51,0,0,1-2,3.28"/><line class="cls-4" x1="34.75" y1="33.59" x2="51" y2="33.59"/><path class="cls-4" d="M34.75,29.93s11.83-.3,16,1.68"/><path class="cls-4" d="M34.75,26.2S45,26.1,50.08,28.67"/><path class="cls-4" d="M34.75,22.43A23.66,23.66,0,0,1,49,26.2"/><path class="cls-4" d="M34.75,36.9s11.83.3,16-1.68"/><path class="cls-4" d="M34.75,40.63s10.28.1,15.33-2.47"/><path class="cls-4" d="M34.75,44.41A23.63,23.63,0,0,0,49,40.63"/></g></g></g></svg>