<svg xmlns="http://www.w3.org/2000/svg" viewBox="0 0 69.5 57.5"><defs><style>.cls-1{fill:none;}.cls-1,.cls-2,.cls-3,.cls-4{stroke:#fff;stroke-miterlimit:10;}.cls-1,.cls-3{stroke-width:5px;}.cls-2,.cls-3{fill:#fff;}.cls-4{stroke-width:6px;}</style></defs><title>map_menu_icon</title><g id="Layer_2" data-name="Layer 2"><g id="Map_Menu_icon" data-name="Map Menu icon"><g id="map_icon"><path class="cls-1" d="M22.5,26.5V5.5a3,3,0,0,1,3-3H64a3,3,0,0,1,3,3v39a3,3,0,0,1-3,3H35"/><path class="cls-2" d="M59.49,9.55l-1.22.22-4.67.86S52,14.43,52,16.05s-1.07,3.26,0,4.34-.54,3.25-1.61,4.34-3.22,1.63-3.75,0S42.87,22,42.87,22l-3.21,6a6.5,6.5,0,0,0,1.07,3.25A5,5,0,0,0,45.55,34c2.68,0,1.08,1.08,3.76-.55s4.82-2.17,5.36-3.25,1.07-3.79,3.22-2.17,1.6,5.42,1.6,6.51-1.6,2.17-1.07,3.25A14.27,14.27,0,0,0,61.1,41a23.4,23.4,0,0,0,4.29,2.71H67V8.48Z"/><path class="cls-3" d="M33.35,10.46s-4.29,5.42-3.75,6,5.36,2.16,5.9,2.16,3.75-.54,3.75-2.71,1.07-5.42,0-5.42Z"/></g><line class="cls-4" x1="0.68" y1="33" x2="32" y2="33"/><line class="cls-4" y1="43.5" x2="31.32" y2="43.5"/><line class="cls-4" y1="54.5" x2="31.32" y2="54.5"/></g></g></svg>