<svg xmlns="http://www.w3.org/2000/svg" viewBox="0 0 71.5 70"><defs><style>.cls-1{fill:none;}.cls-1,.cls-2,.cls-3{stroke:#fff;stroke-miterlimit:10;}.cls-1,.cls-3{stroke-width:5px;}.cls-2,.cls-3,.cls-4{fill:#fff;}</style></defs><title>map_icon</title><g id="Layer_2" data-name="Layer 2"><g id="Close"><g id="map_icon"><path class="cls-2" d="M57.78,12.68,56,13l-7,1.24s-2.4,5.48-2.4,7.83-1.61,4.7,0,6.26-.8,4.7-2.41,6.27-4.8,2.35-5.61,0S33,30.69,33,30.69l-4.81,8.62a9.19,9.19,0,0,0,1.6,4.7c1.6,2.35,3.21,3.91,7.21,3.91s1.6,1.57,5.61-.78,7.21-3.13,8-4.7,1.6-5.48,4.81-3.13,2.4,7.83,2.4,9.39-2.4,3.14-1.6,4.7a20.47,20.47,0,0,0,4,4.7C61.79,59.67,66.6,62,66.6,62H69V11.14Z"/><path class="cls-3" d="M18.72,14s-6.41,7.83-5.61,8.61,8,3.14,8.81,3.14,5.61-.79,5.61-3.92,1.6-7.83,0-7.83Z"/><path class="cls-4" d="M5.61,58.22q4.51-4.14,8.6-8.68c1.29-1.43-.82-3.56-2.12-2.12Q8,52,3.49,56.09c-1.42,1.31.7,3.43,2.12,2.13Z"/><path class="cls-4" d="M12.6,49.27A116.29,116.29,0,0,1,23,59.13c1.32,1.42,3.44-.7,2.12-2.12a116.29,116.29,0,0,0-10.36-9.86c-1.46-1.24-3.6.88-2.12,2.12Z"/><path class="cls-4" d="M25.62,59.09a19.5,19.5,0,0,1,5.15-5.63c1.55-1.13.05-3.73-1.51-2.59A23.19,23.19,0,0,0,23,57.58c-1,1.65,1.59,3.16,2.59,1.51Z"/><path class="cls-4" d="M29.08,52.91a122.36,122.36,0,0,1,9.31,8.76c1.33,1.39,3.45-.73,2.12-2.12a122.1,122.1,0,0,0-9.3-8.76c-1.47-1.24-3.6.87-2.13,2.12Z"/><path class="cls-4" d="M8.23,54.05c1.21,1.74,4.79,6.55,6.85,3.16a2.88,2.88,0,0,0,.35-.81c0-.51-.19-.12,0,.11.3.46,1.53.61,2,.56a2.17,2.17,0,0,0,1.9-2.75c-.47-1.88-3.36-1.09-2.9.79l.07.29.16-1.15c.55-.08.64-.19.29-.33a4,4,0,0,0-.61-.32,3.37,3.37,0,0,0-1.2-.3,2.42,2.42,0,0,0-1.85.88,3.44,3.44,0,0,0-.44.74,4.71,4.71,0,0,0-.21.52c-.16.38,0,.25.42-.38a25.8,25.8,0,0,0-2.19-2.52C9.73,51,7.13,52.46,8.23,54.05Z"/><path class="cls-4" d="M33.93,67a59.63,59.63,0,0,0,6.82-4C42.51,61.79,44.89,59,47,60c1.71.75,3.24,3,4.75,4.12a16.49,16.49,0,0,0,5.17,2.66c1.84.58,2.63-2.31.8-2.89-3.33-1.05-5.51-3.37-8.08-5.58-1-.87-2.36-2.4-3.86-2.37s-3,1.9-4.15,2.76a56.49,56.49,0,0,1-9.19,5.77c-1.72.87-.21,3.46,1.51,2.59Z"/><rect class="cls-1" x="2.5" y="2.5" width="66.5" height="65" rx="3"/></g></g></g></svg>