<svg xmlns="http://www.w3.org/2000/svg" viewBox="0 0 94 94"><defs><style>.cls-1{fill:#66a563;}.cls-2{fill:#2032d3;}.cls-3{fill:#31bac4;}.cls-4{fill:#ba7c52;}.cls-5{fill:#d35050;}</style></defs><title>palette_template_Kuller</title><g id="Layer_2" data-name="Layer 2"><g id="Color_templates" data-name="Color templates"><g id="Kuler"><path class="cls-1" d="M47,0V19c-.33,0-.66,0-1,0A28,28,0,0,0,18,47H0A47,47,0,0,1,47,0Z"/><path class="cls-2" d="M47,75V94A47,47,0,0,1,0,47H18A28,28,0,0,0,46,75C46.34,75,46.67,75,47,75Z"/><path class="cls-3" d="M86.9,71.85A47,47,0,0,1,47,94V75a28,28,0,0,0,23.55-14.5Z"/><path class="cls-4" d="M94,47a46.79,46.79,0,0,1-7.1,24.85L70.55,60.47A28,28,0,0,0,72.44,37.8l17-10.92A46.87,46.87,0,0,1,94,47Z"/><path class="cls-5" d="M89.49,26.88l-17,10.92A28,28,0,0,0,47,19V0A47,47,0,0,1,89.49,26.88Z"/></g></g></g></svg>