<svg xmlns="http://www.w3.org/2000/svg" viewBox="0 0 94 94"><defs><style>.cls-1{fill:#f2483b;}.cls-2{fill:#ff7f00;}.cls-3{fill:#ffbc00;}.cls-4{fill:#d8d852;}.cls-5{fill:#aaaf38;}.cls-6{fill:#38b247;}.cls-7{fill:#76e586;}.cls-8{fill:#ff0;}</style></defs><title>palette_template_Default</title><g id="Layer_2" data-name="Layer 2"><g id="Color_templates" data-name="Color templates"><g id="Default"><path class="cls-1" d="M84.21,18.28,68.53,30.38c.16.22.33.44.48.67L84.49,18.64ZM24.9,65.4A27.92,27.92,0,0,1,18,47H0A46.8,46.8,0,0,0,10.89,77.08c.09.12.19.24.29.35L25.43,66C25.25,65.8,25.07,65.61,24.9,65.4Z"/><path class="cls-2" d="M46.31,75l-.16,19a46.88,46.88,0,0,1-35-16.56L25.43,66A28,28,0,0,0,46,75Z"/><path class="cls-3" d="M77.86,82.45A46.84,46.84,0,0,1,46.15,94h0l.16-19a27.88,27.88,0,0,0,18.23-7Z"/><path class="cls-4" d="M94,47H74a27.9,27.9,0,0,0-5-15.95L84,18A49.13,49.13,0,0,1,94,47Z"/><path class="cls-5" d="M84,18,69,31c-5-6.71-13.31-11.75-22.24-12l.15-19H47A46.28,46.28,0,0,1,84,18Z"/><path class="cls-6" d="M46.91,0l-.15,19c-.25,0-.51,0-.76,0a27.89,27.89,0,0,0-19.36,7.78L14.23,13.3A46.85,46.85,0,0,1,46.91,0Z"/><path class="cls-7" d="M26.64,26.78A27.91,27.91,0,0,0,18,47H0A46.86,46.86,0,0,1,14.23,13.3Z"/><path class="cls-8" d="M94,47A46.87,46.87,0,0,1,77.86,82.45L64.54,68A27.94,27.94,0,0,0,74,47Z"/></g></g></g></svg>