<svg xmlns="http://www.w3.org/2000/svg" viewBox="0 0 94 94"><defs><style>.cls-1{fill:#f49a38;}.cls-2{fill:#59af4a;}</style></defs><title>palette_template_Fox</title><g id="Layer_2" data-name="Layer 2"><g id="Color_templates" data-name="Color templates"><g id="Fox"><path class="cls-1" d="M46,19c.26,0,.52,0,.77,0L47,0a47,47,0,0,0-.88,94l.18-19H46a28,28,0,0,1,0-56Z"/><path class="cls-2" d="M94,47A47,47,0,0,1,47,94c-.31,0-.62,0-.93,0l.18-19a28,28,0,0,0,.52-56L47,0h0A47,47,0,0,1,94,47Z"/></g></g></g></svg>