<svg xmlns="http://www.w3.org/2000/svg" viewBox="0 0 150.28 109.99"><defs><style>.cls-1,.cls-2,.cls-3{fill:#fff;stroke:#fff;stroke-miterlimit:10;}.cls-1{stroke-width:0.25px;}.cls-2{stroke-width:4px;}</style></defs><title>palettes_management_icon</title><g id="Layer_2" data-name="Layer 2"><g id="Palette"><g id="palettes_management_icon"><g id="inner_text"><path class="cls-1" d="M101.88,68.14h1.49V79.5h-1.56V71l.08.5L99.1,77.92H98l-2.8-6.27.08-.66V79.5H93.71V68.14H95.2l3.34,7.5Z"/><path class="cls-1" d="M106.38,79a2.32,2.32,0,0,1-.75-1.89,2.29,2.29,0,0,1,.68-1.8,3.05,3.05,0,0,1,2.06-.6h2.3l.11,1.28h-2.4a1.41,1.41,0,0,0-.94.27,1.12,1.12,0,0,0-.31.85,1.08,1.08,0,0,0,.41.92,2.22,2.22,0,0,0,1.25.29,3.6,3.6,0,0,0,1.36-.19.65.65,0,0,0,.45-.61l.17,1.14a1.92,1.92,0,0,1-.52.54,2.34,2.34,0,0,1-.72.31,3.6,3.6,0,0,1-.91.11A3.44,3.44,0,0,1,106.38,79Zm4.22-4.64a1.74,1.74,0,0,0-.42-1.24,1.63,1.63,0,0,0-1.21-.44,3.09,3.09,0,0,0-1,.15,3,3,0,0,0-.82.41L106,72.45a3.08,3.08,0,0,1,1.22-.87,4.47,4.47,0,0,1,1.67-.3,3.81,3.81,0,0,1,1.73.35,2.47,2.47,0,0,1,1.09,1,3.33,3.33,0,0,1,.38,1.63V79.5H110.6Z"/><path class="cls-1" d="M114.54,71.39h1.59V79.5h-1.59Zm4.92,3.2a1.87,1.87,0,0,0-.44-1.33,1.67,1.67,0,0,0-1.25-.47,1.65,1.65,0,0,0-1.21.42,1.55,1.55,0,0,0-.43,1.16L116,72.81a3,3,0,0,1,1-1.14,2.41,2.41,0,0,1,1.34-.39,2.49,2.49,0,0,1,2,.86,3.7,3.7,0,0,1,.73,2.44V79.5h-1.6Z"/><path class="cls-1" d="M123.83,79a2.31,2.31,0,0,1-.74-1.89,2.25,2.25,0,0,1,.68-1.8,3,3,0,0,1,2-.6h2.31l.11,1.28h-2.41a1.36,1.36,0,0,0-.93.27,1.08,1.08,0,0,0-.31.85A1.05,1.05,0,0,0,125,78a2.18,2.18,0,0,0,1.24.29,3.66,3.66,0,0,0,1.37-.19.65.65,0,0,0,.45-.61l.16,1.14a1.79,1.79,0,0,1-.52.54,2.28,2.28,0,0,1-.71.31,3.74,3.74,0,0,1-.92.11A3.44,3.44,0,0,1,123.83,79Zm4.23-4.64a1.74,1.74,0,0,0-.43-1.24,1.62,1.62,0,0,0-1.21-.44,3.09,3.09,0,0,0-1,.15,3,3,0,0,0-.82.41l-1.16-.79a3,3,0,0,1,1.21-.87,4.49,4.49,0,0,1,1.68-.3,3.8,3.8,0,0,1,1.72.35,2.5,2.5,0,0,1,1.1,1,3.33,3.33,0,0,1,.37,1.63V79.5h-1.51Z"/><path class="cls-1" d="M133,79.26a2.53,2.53,0,0,1-.95-1.13,4.38,4.38,0,0,1-.33-1.78V74.56a4.55,4.55,0,0,1,.32-1.79,2.38,2.38,0,0,1,.93-1.13,2.7,2.7,0,0,1,1.48-.39,2.44,2.44,0,0,1,1.31.38,2.81,2.81,0,0,1,1,1.05l-.17,1.66a1.94,1.94,0,0,0-.18-.88,1.24,1.24,0,0,0-.55-.56,1.74,1.74,0,0,0-.86-.19,1.53,1.53,0,0,0-1.22.49,2,2,0,0,0-.44,1.38v1.77a2,2,0,0,0,.44,1.36,1.55,1.55,0,0,0,1.22.48,1.74,1.74,0,0,0,.86-.2,1.32,1.32,0,0,0,.55-.57,2.06,2.06,0,0,0,.18-.9l.11,1.71a2.28,2.28,0,0,1-.79,1,2.24,2.24,0,0,1-1.36.4A2.93,2.93,0,0,1,133,79.26Zm.76,3.54-.72-.34a2.67,2.67,0,0,1-1.13-1l1.08-1a2.35,2.35,0,0,0,.75.66,1.84,1.84,0,0,0,.91.23,1.87,1.87,0,0,0,1.41-.5,1.92,1.92,0,0,0,.5-1.43v-8.1h1.6v7.87a4.17,4.17,0,0,1-.41,1.91,2.73,2.73,0,0,1-1.19,1.21,4,4,0,0,1-1.89.42Z"/><path class="cls-1" d="M142.81,79.62,142,79.2A2.87,2.87,0,0,1,140.8,78a4.25,4.25,0,0,1-.42-2v-.92a4.71,4.71,0,0,1,.41-2,2.8,2.8,0,0,1,1.17-1.3,3.53,3.53,0,0,1,1.84-.44,2.9,2.9,0,0,1,1.73.5,3.15,3.15,0,0,1,1.1,1.47,6.35,6.35,0,0,1,.38,2.31v.53h-5.47V74.81h4a2.67,2.67,0,0,0-.51-1.55,1.45,1.45,0,0,0-1.18-.55,1.7,1.7,0,0,0-1.4.6,2.53,2.53,0,0,0-.5,1.68v1a2.1,2.1,0,0,0,.53,1.54,2,2,0,0,0,1.51.54,2.53,2.53,0,0,0,1-.19,2.64,2.64,0,0,0,.85-.55l1.05,1a4.46,4.46,0,0,1-1.35.89,3.9,3.9,0,0,1-1.51.32Z"/><path class="cls-1" d="M96.25,92.62l-.89-.52A3.58,3.58,0,0,1,94,90.61a4.79,4.79,0,0,1-.49-2.23V85.27A4.79,4.79,0,0,1,94,83a3.58,3.58,0,0,1,1.39-1.49A4,4,0,0,1,97.43,81a4,4,0,0,1,1.8.41,3.9,3.9,0,0,1,1.37,1.19,4.54,4.54,0,0,1,.75,1.77H99.71a2.61,2.61,0,0,0-.49-1,2.5,2.5,0,0,0-.82-.64,2.23,2.23,0,0,0-1-.23,2.18,2.18,0,0,0-1.22.34,2.14,2.14,0,0,0-.81.94,3.25,3.25,0,0,0-.29,1.41v3.11a3.29,3.29,0,0,0,.29,1.41,2.14,2.14,0,0,0,.81.94,2.25,2.25,0,0,0,1.22.33,2.32,2.32,0,0,0,1-.21,2.44,2.44,0,0,0,.82-.62,2.56,2.56,0,0,0,.49-1h1.64A4.67,4.67,0,0,1,100.6,91a3.82,3.82,0,0,1-1.38,1.18,3.87,3.87,0,0,1-1.79.42Z"/><path class="cls-1" d="M104.76,92.21A2.8,2.8,0,0,1,103.61,91a4.31,4.31,0,0,1-.39-1.91V87.77a4.19,4.19,0,0,1,.39-1.89,2.76,2.76,0,0,1,1.15-1.19,4.18,4.18,0,0,1,3.61,0,2.68,2.68,0,0,1,1.14,1.19,4.06,4.06,0,0,1,.4,1.89v1.34a4.13,4.13,0,0,1-.4,1.9,2.76,2.76,0,0,1-1.14,1.2,4.18,4.18,0,0,1-3.61,0Zm3.1-1.63a2.19,2.19,0,0,0,.45-1.47V87.77a2.14,2.14,0,0,0-.45-1.46,1.87,1.87,0,0,0-2.59,0,2.15,2.15,0,0,0-.46,1.46v1.34a2.19,2.19,0,0,0,.46,1.47,1.87,1.87,0,0,0,2.59,0Z"/><path class="cls-1" d="M113.77,90.41a.7.7,0,0,0,.13.46.44.44,0,0,0,.36.16H115v1.51h-.94a1.79,1.79,0,0,1-1.4-.56,2.33,2.33,0,0,1-.5-1.59V81.14h1.6Z"/><path class="cls-1" d="M118.11,92.21A2.73,2.73,0,0,1,117,91a4.17,4.17,0,0,1-.4-1.91V87.77a4.06,4.06,0,0,1,.4-1.89,2.68,2.68,0,0,1,1.14-1.19,4.18,4.18,0,0,1,3.61,0,2.68,2.68,0,0,1,1.14,1.19,4.06,4.06,0,0,1,.4,1.89v1.34a4.13,4.13,0,0,1-.4,1.9,2.76,2.76,0,0,1-1.14,1.2,4.18,4.18,0,0,1-3.61,0Zm3.1-1.63a2.19,2.19,0,0,0,.46-1.47V87.77a2.15,2.15,0,0,0-.46-1.46,1.87,1.87,0,0,0-2.59,0,2.14,2.14,0,0,0-.45,1.46v1.34a2.19,2.19,0,0,0,.45,1.47,1.87,1.87,0,0,0,2.59,0Z"/><path class="cls-1" d="M125.52,84.39h1.6V92.5h-1.6Zm3.93,1.53a1.88,1.88,0,0,0-.74-.13,1.46,1.46,0,0,0-1.59,1.58L127,85.81a3,3,0,0,1,1-1.13,2.3,2.3,0,0,1,1.32-.4,2.87,2.87,0,0,1,1,.16,2.07,2.07,0,0,1,.78.47l-1,1.4A1.34,1.34,0,0,0,129.45,85.92Z"/><path class="cls-1" d="M93.71,94.14h1.6V105.5h-1.6Zm.82,5.44h3.64a1.68,1.68,0,0,0,.9-.24,1.65,1.65,0,0,0,.61-.69,2.61,2.61,0,0,0,0-2.05,1.74,1.74,0,0,0-.61-.7,1.68,1.68,0,0,0-.9-.24H94.53V94.14h3.58a3.6,3.6,0,0,1,1.79.44,3,3,0,0,1,1.2,1.22,3.83,3.83,0,0,1,.42,1.83,3.79,3.79,0,0,1-.42,1.82,3.06,3.06,0,0,1-1.2,1.22,3.7,3.7,0,0,1-1.79.43H94.53Z"/><path class="cls-1" d="M103.48,105a2.31,2.31,0,0,1-.74-1.89,2.25,2.25,0,0,1,.68-1.8,3,3,0,0,1,2-.6h2.3l.11,1.28h-2.4a1.41,1.41,0,0,0-.94.27,1.11,1.11,0,0,0-.3.85,1.05,1.05,0,0,0,.41.92,2.16,2.16,0,0,0,1.24.29,3.66,3.66,0,0,0,1.37-.19.65.65,0,0,0,.44-.61l.17,1.14a1.92,1.92,0,0,1-.52.54,2.34,2.34,0,0,1-.72.31,3.6,3.6,0,0,1-.91.11A3.44,3.44,0,0,1,103.48,105Zm4.22-4.64a1.74,1.74,0,0,0-.42-1.24,1.63,1.63,0,0,0-1.21-.44,3.09,3.09,0,0,0-.95.15,3,3,0,0,0-.82.41l-1.17-.79a3.15,3.15,0,0,1,1.22-.87,4.47,4.47,0,0,1,1.67-.3,3.81,3.81,0,0,1,1.73.35,2.5,2.5,0,0,1,1.1,1,3.33,3.33,0,0,1,.37,1.63v5.21H107.7Z"/><path class="cls-1" d="M113.24,103.41a.76.76,0,0,0,.12.46.47.47,0,0,0,.37.16h.75v1.51h-.94a1.79,1.79,0,0,1-1.4-.56,2.33,2.33,0,0,1-.5-1.59V94.14h1.6Z"/><path class="cls-1" d="M118.47,105.62l-.8-.42a2.84,2.84,0,0,1-1.21-1.24,4.25,4.25,0,0,1-.42-2v-.92a4.71,4.71,0,0,1,.4-2,2.91,2.91,0,0,1,1.17-1.3,3.58,3.58,0,0,1,1.84-.44,2.93,2.93,0,0,1,1.74.5,3.22,3.22,0,0,1,1.1,1.47,6.35,6.35,0,0,1,.38,2.31v.53H117.2v-1.28h4a2.82,2.82,0,0,0-.51-1.55,1.47,1.47,0,0,0-1.19-.55,1.72,1.72,0,0,0-1.4.6,2.53,2.53,0,0,0-.49,1.68v1a2.06,2.06,0,0,0,.53,1.54,2,2,0,0,0,1.51.54,2.53,2.53,0,0,0,1-.19,2.76,2.76,0,0,0,.85-.55l1,1a4.46,4.46,0,0,1-1.35.89,3.85,3.85,0,0,1-1.5.32Z"/><path class="cls-1" d="M124.23,97.39h3.65v1.44h-3.65Zm1.29,7.61a2.47,2.47,0,0,1-.46-1.61V95h1.6v8.38a.84.84,0,0,0,.11.46.43.43,0,0,0,.35.16h.76v1.51H127A1.8,1.8,0,0,1,125.52,105Z"/><path class="cls-1" d="M129.45,97.39h3.65v1.44h-3.65Zm1.29,7.61a2.47,2.47,0,0,1-.46-1.61V95h1.6v8.38a.84.84,0,0,0,.11.46.43.43,0,0,0,.35.16h.76v1.51h-.92A1.77,1.77,0,0,1,130.74,105Z"/><path class="cls-1" d="M137.49,105.62l-.8-.42a2.87,2.87,0,0,1-1.22-1.24,4.38,4.38,0,0,1-.41-2v-.92a4.71,4.71,0,0,1,.4-2,2.91,2.91,0,0,1,1.17-1.3,3.56,3.56,0,0,1,1.84-.44,2.93,2.93,0,0,1,1.74.5,3.2,3.2,0,0,1,1.09,1.47,6.35,6.35,0,0,1,.38,2.31v.53h-5.47v-1.28h4a2.75,2.75,0,0,0-.52-1.55,1.45,1.45,0,0,0-1.18-.55,1.72,1.72,0,0,0-1.4.6,2.53,2.53,0,0,0-.5,1.68v1a2.1,2.1,0,0,0,.53,1.54,2,2,0,0,0,1.51.54,2.53,2.53,0,0,0,1-.19,2.64,2.64,0,0,0,.85-.55l1.05,1a4.46,4.46,0,0,1-1.35.89,3.87,3.87,0,0,1-1.51.32Z"/><path class="cls-1" d="M146,105.62l-.63-.14a5.69,5.69,0,0,1-1.18-.42,4.66,4.66,0,0,1-1-.71l.94-1.16a5.49,5.49,0,0,0,1.31.75,3.43,3.43,0,0,0,1.28.25,2.75,2.75,0,0,0,1.41-.29,1,1,0,0,0,.48-.88.7.7,0,0,0-.26-.59,1.42,1.42,0,0,0-.64-.26c-.26,0-.62-.09-1.08-.12h-.39a6.34,6.34,0,0,1-1.34-.24,1.89,1.89,0,0,1-.91-.62,2.12,2.12,0,0,1-.36-1.32,2.7,2.7,0,0,1,.35-1.43,2.15,2.15,0,0,1,1.05-.86,4.59,4.59,0,0,1,1.74-.28,5.46,5.46,0,0,1,2.31.46,5.64,5.64,0,0,1,1,.58l-1,1.17a5.13,5.13,0,0,0-1.2-.59,3.6,3.6,0,0,0-1.15-.19,2.23,2.23,0,0,0-1.22.27.94.94,0,0,0-.4.83.56.56,0,0,0,.23.5,1.33,1.33,0,0,0,.58.22l1,.09h.3a6.68,6.68,0,0,1,1.44.23,1.93,1.93,0,0,1,1,.68,2.32,2.32,0,0,1,.4,1.47,2.63,2.63,0,0,1-.37,1.45,2.27,2.27,0,0,1-1.13.86,5.36,5.36,0,0,1-1.89.29Z"/></g><g id="inner_circle"><path class="cls-2" d="M115.48,42.05A48.46,48.46,0,0,0,69,13.07c-24.15,1-45.44,22.3-46.42,46.44a48.51,48.51,0,0,0,29.2,46.54,1,1,0,0,1-.41,1.91L17,108A15.05,15.05,0,0,1,2,93V17A15,15,0,0,1,17,2h85.15a15.07,15.07,0,0,1,15,14.85l.24,24.79A1,1,0,0,1,115.48,42.05Z"/></g><g id="inner_image"><path class="cls-3" d="M86.07,67.3C81.84,69,74.59,74,72.17,71.75S67.94,62.29,77,56.16,93.32,45.59,89.7,33.9s-17.53-9.46-22.37-6.68a89.61,89.61,0,0,0-9.67,6.68S28.05,58.39,38.93,80.65,80,82.32,80,82.32s8.46-6.12,10.27-9.46S90.3,65.63,86.07,67.3ZM44.19,57.57c1.43-3.13,4.26-5,6.32-4.21s2.57,4,1.15,7.1-4.26,5-6.32,4.21S42.77,60.69,44.19,57.57Zm6.49,24.85c-2,.85-4.92-1-6.45-4s-1.1-6.28.94-7.13,4.92,1,6.44,4S52.72,81.56,50.68,82.42Zm7.48-34.76c-1.56,2-4.21,2.79-5.93,1.67s-1.84-3.67-.27-5.71,4.21-2.78,5.93-1.67S59.72,45.62,58.16,47.66Zm7-9.76c-1.6,1.12-3.54,1.22-4.35.24s-.15-2.68,1.44-3.79,3.55-1.22,4.35-.23S66.76,36.8,65.16,37.9Z"/></g></g></g></g></svg>