<svg xmlns="http://www.w3.org/2000/svg" viewBox="0 0 95.3 106.5"><defs><style>.cls-1-psi{fill:#fff;}.cls-2-psi,.cls-3-psi,.cls-4-psi{fill:none;stroke:#fff;stroke-miterlimit:10;}.cls-2-psi{stroke-width:4px;}.cls-3-psi{stroke-width:2px;}.cls-4-psi{stroke-width:3px;}</style></defs><title>points_server_icon_1</title><g id="Layer_2" data-name="Layer 2"><g id="Points_server" data-name="Points server"><path class="cls-1-psi" d="M58.11,4a1,1,0,0,1,1,1V77.12a1,1,0,0,1-1,1H5a1,1,0,0,1-1-1V5A1,1,0,0,1,5,4H58.11m0-4H5A5,5,0,0,0,0,5V77.12a5,5,0,0,0,5,5H58.11a5,5,0,0,0,5-5V5a5,5,0,0,0-5-5Z"/><line class="cls-2-psi" y1="21.31" x2="63.11" y2="21.31"/><line class="cls-2-psi" y1="42.1" x2="63.11" y2="42.1"/><line class="cls-2-psi" y1="62.44" x2="63.11" y2="62.44"/><ellipse class="cls-3-psi" cx="49.97" cy="11.95" rx="3.68" ry="3.64"/><ellipse class="cls-3-psi" cx="49.97" cy="31.7" rx="3.68" ry="3.64"/><ellipse class="cls-3-psi" cx="49.97" cy="52.49" rx="3.68" ry="3.64"/><ellipse class="cls-3-psi" cx="49.97" cy="70.17" rx="3.68" ry="3.64"/><line class="cls-3-psi" x1="12.62" y1="9.36" x2="21.04" y2="9.36"/><line class="cls-3-psi" x1="12.62" y1="14.55" x2="21.04" y2="14.55"/><line class="cls-3-psi" x1="12.62" y1="29.11" x2="21.04" y2="29.11"/><line class="cls-3-psi" x1="12.62" y1="34.3" x2="21.04" y2="34.3"/><line class="cls-3-psi" x1="12.62" y1="49.9" x2="21.04" y2="49.9"/><line class="cls-3-psi" x1="12.62" y1="55.09" x2="21.04" y2="55.09"/><line class="cls-3-psi" x1="12.62" y1="68.61" x2="21.04" y2="68.61"/><line class="cls-3-psi" x1="12.62" y1="73.8" x2="21.04" y2="73.8"/><path class="cls-4-psi" d="M68.73,104.42V55.13A24.94,24.94,0,0,0,68.2,105h.53Z"/><path class="cls-4-psi" d="M65.31,55.36s-12.38,15.58,0,49.64"/><path class="cls-4-psi" d="M59.81,56.75s-19.52,21.49,0,46.63"/><path class="cls-4-psi" d="M51.13,62.3s-13.52,15.78,0,35.53"/><line class="cls-4-psi" x1="68.73" y1="80.26" x2="43.46" y2="80.26"/><path class="cls-4-psi" d="M68.73,74.38s-18.39-.49-24.89,2.7"/><path class="cls-4-psi" d="M68.73,68.38s-16-.17-23.84,4"/><path class="cls-4-psi" d="M68.73,62.3a35.79,35.79,0,0,0-22.15,6.08"/><path class="cls-4-psi" d="M68.73,85.59s-18.39.48-24.89-2.7"/><path class="cls-4-psi" d="M68.73,91.59s-16,.17-23.84-4"/><path class="cls-4-psi" d="M68.73,97.66a35.74,35.74,0,0,1-22.15-6.07"/><path class="cls-4-psi" d="M68.73,104.42V55.13A24.94,24.94,0,0,1,69.26,105h-.53Z"/><path class="cls-4-psi" d="M72.15,55.36s12.38,15.58,0,49.64"/><path class="cls-4-psi" d="M77.65,56.75s19.52,21.49,0,46.63"/><path class="cls-4-psi" d="M86.33,62.3s13.52,15.78,0,35.53"/><line class="cls-4-psi" x1="68.73" y1="80.26" x2="94" y2="80.26"/><path class="cls-4-psi" d="M68.73,74.38s18.39-.49,24.89,2.7"/><path class="cls-4-psi" d="M68.73,68.38s16-.17,23.84,4"/><path class="cls-4-psi" d="M68.73,62.3a35.79,35.79,0,0,1,22.15,6.08"/><path class="cls-4-psi" d="M68.73,85.59s18.39.48,24.89-2.7"/><path class="cls-4-psi" d="M68.73,91.59s16,.17,23.84-4"/><path class="cls-4-psi" d="M68.73,97.66a35.74,35.74,0,0,0,22.15-6.07"/></g></g></svg>