<svg xmlns="http://www.w3.org/2000/svg" viewBox="0 0 89 91.88"><defs><style>.cls-1{fill:#fff;}.cls-2{fill:none;stroke:#fff;stroke-miterlimit:10;stroke-width:3px;}</style></defs><title>reload_icon</title><g id="Layer_2" data-name="Layer 2"><g id="Reload"><path class="cls-1" d="M89,45.9c0,25.31-19.89,45.91-44.38,46C21.34,91.94,1.71,73.15.11,49.15a46.73,46.73,0,0,1,11-33.59L7.41,12.29a3.07,3.07,0,0,1-1-2.8A3,3,0,0,1,8.28,7.21L24.57.83a2.87,2.87,0,0,1,3.05.39,3.11,3.11,0,0,1,.81,3.07L24.62,21.85a3,3,0,0,1-1.93,2.2,2.89,2.89,0,0,1-.91.15,2.83,2.83,0,0,1-1.9-.74l-3.46-3.11A39.4,39.4,0,0,0,7.28,49.81C9.16,69.47,25.43,84.57,44.55,84.55c20.6,0,37.36-17.36,37.36-38.65,0-20.46-15.47-37.26-35-38.57A2.64,2.64,0,0,1,44.5,4.67v-2A2.62,2.62,0,0,1,47.27,0C70.52,1.49,89,21.5,89,45.9Z"/><path class="cls-2" d="M44.34,69.33V21.91a24,24,0,0,0-.5,48h.5Z"/><path class="cls-2" d="M41.09,22.13s-11.77,15,0,47.76"/><path class="cls-2" d="M35.86,23.47s-18.56,20.67,0,44.86"/><path class="cls-2" d="M27.61,28.81S14.76,44,27.61,63"/><line class="cls-2" x1="44.34" y1="46.09" x2="20.32" y2="46.09"/><path class="cls-2" d="M44.34,40.43S26.86,40,20.68,43"/><path class="cls-2" d="M44.34,34.66s-15.2-.16-22.67,3.82"/><path class="cls-2" d="M44.34,28.81a33.72,33.72,0,0,0-21.06,5.84"/><path class="cls-2" d="M44.34,51.21s-17.48.47-23.66-2.59"/><path class="cls-2" d="M44.34,57s-15.2.15-22.67-3.83"/><path class="cls-2" d="M44.34,62.83A33.72,33.72,0,0,1,23.28,57"/><path class="cls-2" d="M44.34,69.33V21.91a24,24,0,0,1,.5,48h-.5Z"/><path class="cls-2" d="M47.59,22.13s11.77,15,0,47.76"/><path class="cls-2" d="M52.82,23.47s18.56,20.67,0,44.86"/><path class="cls-2" d="M61.07,28.81S73.92,44,61.07,63"/><line class="cls-2" x1="44.34" y1="46.09" x2="68.36" y2="46.09"/><path class="cls-2" d="M44.34,40.43S61.82,40,68,43"/><path class="cls-2" d="M44.34,34.66S59.53,34.5,67,38.48"/><path class="cls-2" d="M44.34,28.81a33.7,33.7,0,0,1,21,5.84"/><path class="cls-2" d="M44.34,51.21s17.48.47,23.66-2.59"/><path class="cls-2" d="M44.34,57s15.19.15,22.67-3.83"/><path class="cls-2" d="M44.34,62.83a33.7,33.7,0,0,0,21-5.84"/></g></g></svg>