<svg xmlns="http://www.w3.org/2000/svg" viewBox="0 0 88.93 91.96"><defs><style>.rs-cls-1-str{stroke-width:2px; fill:#fff}.rs-cls-1,.rs-cls-2{fill:#fff;}.rs-cls-2{stroke:#fff;stroke-miterlimit:10;stroke-width:10px;}</style></defs><title>resize_point_icon</title><g id="Layer_2" data-name="Layer 2"><g id="Resize"><path class="rs-cls-1" d="M33.41,87.5c-.58,0-1.17,0-1.75-.07-12.17-1-21.27-12-20.29-24.62C12.29,51,22,41.7,33.46,41.7c.58,0,1.16,0,1.74.07,12.17,1,21.27,12,20.29,24.61C54.57,78.22,44.87,87.5,33.41,87.5Z"/><path class="rs-cls-1" d="M33.46,41.2v1c.56,0,1.14,0,1.7.07C47.06,43.23,56,54,55,66.35,54.1,77.93,44.61,87,33.41,87c-.57,0-1.14,0-1.71-.07C19.81,86,10.91,75.17,11.87,62.85c.9-11.58,10.38-20.65,21.59-20.65v-1m0,0c-11.7,0-21.64,9.31-22.59,21.58-1,12.88,8.29,24.14,20.75,25.14.6,0,1.19.08,1.79.08C45.11,88,55,78.68,56,66.42c1-12.88-8.29-24.14-20.75-25.15-.6,0-1.19-.07-1.78-.07Z"/><path class="rs-cls-1-str" d="M44.54,0H37.77A43.19,43.19,0,0,0,32.7,1.66l2.2,7.69A35.36,35.36,0,0,1,44.55,8V0ZM21.76,6.51a44.11,44.11,0,0,0-5.87,4.32h0l-.05.05h0l-.05,0h0v0h0l0,0h0l0,.05h0l0,0h0l0,0h0l0,0h0l0,0h0l0,0h0l0,0h0l0,0h0v0h-.06l0,0h0l0,0H15v0h-.06l0,0h0v0h0l0,0h0l0,0h0l0,0h0v0h0l0,0h0l0,0h0l0,0h0l0,0h0l0,0h0l0,0h0l0,0h0l0,0h0l0,0h0l0,0h0l0,0h0v0h0l0,0h0l0,0h0l0,0h0l0,0h0l0,.05h0l0,0h0l-.05,0h0l0,0h0l-.05.05h0l-.07.07h0l0,0h0l-.07.07h0l-.07.07h0l0,0h0c-.38.38-.75.77-1.12,1.16l5.84,5.47A37.33,37.33,0,0,1,26,13.31l-4.21-6.8ZM5.54,23.82c-.65,1.23-1.26,2.5-1.81,3.8h0l0,.06h0l0,.06h0l0,.06h0v0h0l0,.06h0l0,.06h0l0,0h0v0h0v0h0v0h0v0h0l0,.05h0v0h0l0,0h0v0h0v0h0v0h0v0h0v0h0v0h0v0h0v0h0v0h0v0h0v0h0v0h0v0h0v0h0v0h0v0h0v0h0v0h0l0,0h0v0h0v0h0l0,0h0v0h0l0,.05h0l0,.06h0v0h0v0H3l0,.06H3l0,.06H3q-.6,1.61-1.08,3.27h0l0,.06h0l0,.15h0l0,.06h0l0,.07h0v0h0v0h0v0h0v0h0v0h0v0h0v0h0v0h0v0h0v0h0v0h0v0h0v0h0v0h0v.06h0v0h0v0h0v0h0v0h0v0h0l0,.06h0v0h0v0h0v0h0l0,.07h0l0,.07h0L1.3,35l7.78,1.86A38.88,38.88,0,0,1,12.6,27.6L5.54,23.82ZM8,46.78l-8,.13V47H0v0H0v0H0v0H0v0H0v0H0v0H0v0H0v0H0v0H0v0H0v0H0v0H0v.06H0v0H0v0H0v0H0v0H0v0H0v0H0v.08H0v.08H0v0H0v0H0v0H0v.08H0v.06H0v0H0v0H0v.05H0v.08h0v0h0v0h0v0h0v0h0v0h0v0h0v0h0v0h0v0h0v.06h0v0h0v0h0v.06h0V49h0v0h0v0h0v0h0v0h0v0h0v0h0v0h0v0h0v0h0v.06h0v.07h0v.07h0v.07h0v.06h0v.06h0v0h0v0h0v0h0v0h0v0h0v0h0v0h0v0h0v0h0v0h0v0h0v0h0v0h0v0h0v0h0v.06h0v0h0v0h0v0h0v0h0v0h0v0h0v0h0v.06h0v.06h0v.08h0v0h0V51h0V51h0v.08h0v0h0v0h0v0h0v0h0v0h0v0h0v0h0v0h0v0h0v0h0v0h0v0h0v0h0v0h0v0h0v0h0v0h0v0h0v0h0v0h0v0h0v0h0v0h0v0h0v0h0v0h0v0h0v0h0v0h0v0h0v.07h0v.07h0v.07h0v.07h0A46.72,46.72,0,0,0,1.7,58.76l7.71-2.14A39.24,39.24,0,0,1,8,46.78Zm5.26,19-6.91,4,.05.08h0l0,.06h0l0,.06h0v0h0l0,0h0l0,0h0v0h0v0h0v0h0l0,0h0v0h0v0h0v0h0v0h0v0h0v0h0v0h0l0,0h0l0,0h0l0,0h0v0h0l0,0h0l0,.06h0a46.44,46.44,0,0,0,4.5,6.11h0l.06.07h0l0,0h0v0h0l0,.05h0v0h0l0,0h0v0h0v0h0v0h0l0,0h0l0,0h0l0,0h0v0h0l0,0h0l0,0h0l.05,0h0l0,0h0c.54.58,1.08,1.15,1.64,1.71l5.64-5.68a38.11,38.11,0,0,1-6-7.82ZM27.13,79.48l-3.91,7c.51.29,1,.57,1.55.83h0l.06,0h0l.06,0h0l.06,0h0l.06,0h0l0,0h0l0,0h.24l0,0h0l0,0h0l0,0h0l0,0h0l.06,0h0l.06,0h.09l0,0h0l0,0h0l.06,0h0a42.9,42.9,0,0,0,8.34,2.92L36.21,83a35.36,35.36,0,0,1-9.08-3.56Zm28.38,2.73A35.14,35.14,0,0,1,45.93,84l.34,8a42.39,42.39,0,0,0,11.55-2.09h0l.06,0H58l.05,0-2.52-7.59ZM71.64,71.33a37.24,37.24,0,0,1-7.36,6.55l4.48,6.63,0,0h.06l0,0h0v0h0l0,0h.26l0,0h.11l0,0h.19l0,0h.33l0,0h0l0,0h.18l0,0h0l0,0h.12l0,0h.05l0,0h0l0,0h0l0,0h0l0,0h0l0,0h0l0,0h0l0,0h0l0,0h0l0,0H71l0,0h0l0,0h0l0,0h0l0,0h0l0,0h0l0,0h0l0,0h0l0,0h0l.05,0h0l0,0h0l0,0h0l0,0h0l0,0h0l0,0h0l0,0h0l0,0h0v0h0l.05,0h0l0,0h0l0,0h0l0,0h0l0,0h0l0,0h0l0,0h0l.05,0h0v0h0l0,0h0l0,0h0l0,0h0l0,0h0v0h0l0,0h0v0h0l0,0h0l0,0h0l0,0h0l0,0h0l0,0h0l.05-.05h0l0,0h0l0,0h0v0h0l0,0h0l0,0h0v0h0l0,0h0l0,0h0l0,0h0l0,0h0l0,0h0l0,0h0l0,0h0l0,0h0l0,0h0l0,0h0l0,0h0l0,0h0l0,0h0l0,0h0l0,0h0l0,0h0l0,0h0l0,0h0l0,0h0l0,0h.06v0h.1l0,0h.1v0h.06l0,0h.09v0h0v0h0l0,0h0v0h.06v0h0l0,0h0l0,0h0l0,0h0l0,0h0l0,0h0l0,0h0l0,0h0l0,0h0l0,0h0l0,0h0l0,0h0l0,0h0l0,0h0l0,0h0l0,0h0l0,0h0l0,0h0l0,0h0l0,0h0l0,0h0l0,0h0l0,0h0l.07-.07h0l0,0h0l.07-.07h0l.11-.11h0c.57-.59,1.12-1.2,1.66-1.82l-6.06-5.23Zm8.6-17.68a39.05,39.05,0,0,1-3.16,9.41l7.2,3.5a46.93,46.93,0,0,0,3.8-11.35l-7.84-1.56ZM86.77,31.5l-7.62,2.44a38.9,38.9,0,0,1,1.79,9.77l8-.44a46.86,46.86,0,0,0-.64-5.59h0v-.07h0v-.07h0v-.07h0l0-.07h0v-.06h0v-.06h0V37.2h0v0h0v0h0v0h0v0h0v0h0v0h0v0h0v0h0v0h0v0h0v0h0v0h0v0h0v-.06h0v-.06h0v-.06h0v-.06h0v-.06h0v0h0v-.06h0v0h0v0h0v0h0v0h0v0h0v0h0v0h0v0h0v0h0v0h0v0h0v0h0v0h0v0h0v0h0l0-.07h0v-.07h0v-.06h0l0-.06h0v-.06h0l0-.07h0v-.07h0c-.29-1.27-.64-2.51-1-3.74ZM74,11.5l-5.4,5.9A37.81,37.81,0,0,1,75,25l6.74-4.29c-.51-.82-1-1.61-1.62-2.38h0l0-.06h0L80,18.15h0l0,0h0l0-.05h0l0,0h0l0,0h0l0,0h0l0,0h0l0,0h0l0,0h0l0,0h0v0h0v0h0v0h0v0h0v0h0v0h0v0h0l0,0h0l0,0h0l0,0h0l0-.05h0l0-.05h0l0,0h0l0,0h0v0h0l0,0h0v0h0l0-.06h0l0-.05h0a44,44,0,0,0-4.34-4.81h0l0,0h0l0,0h0l0,0h0l0,0h0l0,0h0l0,0h0l0,0h-.08l0,0h0v0h0l0,0h0l0,0h0l0,0h0l0,0h0l0,0h0l0,0h0l0,0h0l0,0h0l0,0h0l0,0h0l0,0h0l0,0ZM52.86.8,51.33,8.65a35.08,35.08,0,0,1,9.22,3.17l3.62-7.14c-.63-.32-1.27-.62-1.92-.91h0l-.07,0h0l-.06,0h0l-.06,0h0l0,0h0l-.06,0h0l-.06,0h0l0,0h-1l0,0h-.42l-.06,0h-.1l0,0h-.1l0,0h-.29l-.06,0h0l-.06,0H59l-.06,0H56.74l-.06,0h0l-.06,0h-.21l-.07,0h0l-.16,0h0C55.09,1.28,54,1,52.86.8Z"/><polyline class="rs-cls-2" points="59.73 28.08 66.87 33.6 66.83 18.27 52.84 22.76 59.73 28.08 43.96 49.82"/></g></g></svg>