<svg xmlns="http://www.w3.org/2000/svg" viewBox="0 0 201.97 120.42"><defs><style>.cls-1{stroke:#000;stroke-miterlimit:10;}.cls-2{font-size:37.84px;fill:#3bb25a;font-family:Bauhaus93, "Bauhaus 93";}.cls-3{fill:#ead82d;letter-spacing:0em;}</style></defs><title>second_gliph</title><g id="Layer_2" data-name="Layer 2"><g id="Create_a_palette" data-name="Create a palette"><g id="second_gliph"><g id="palette"><path class="cls-1" d="M81,77c-6.87,3-18.65,12.08-22.58,8S51.52,68,66.24,56.89,92.75,37.75,86.86,16.61,58.39-.51,50.54,4.52A143.74,143.74,0,0,0,34.83,16.61S-13.27,60.91,4.4,101.2s66.75,3,66.75,3S84.9,93.14,87.84,87.1,87.84,74,81,77ZM13,59.43c2.32-5.66,6.91-9.07,10.26-7.62s4.18,7.2,1.86,12.85-6.91,9.07-10.25,7.62S10.63,65.08,13,59.43Zm10.54,45c-3.3,1.54-8-1.74-10.47-7.32s-1.8-11.37,1.51-12.91,8,1.74,10.47,7.32S26.8,102.84,23.49,104.39ZM35.64,41.5c-2.54,3.69-6.85,5-9.63,3s-3-6.64-.45-10.32,6.85-5,9.63-3S38.18,37.81,35.64,41.5ZM47,23.85c-2.6,2-5.76,2.2-7.06.42s-.26-4.84,2.33-6.85S48,15.22,49.35,17,49.6,21.84,47,23.85Z"/></g><path class="cls-1" d="M171,32V87h-63.5a6,6,0,0,1-6-6V38a6,6,0,0,1,6-6Z"/><rect class="cls-1" x="174.97" y="8.5" width="5" height="96"/><path class="cls-1" d="M199.47,38V81a6,6,0,0,1-6,6H184V32h9.5A6,6,0,0,1,199.47,38Z"/><text class="cls-2" transform="translate(110.06 73.04) scale(1.2 1)">A<tspan class="cls-3" x="22.39" y="0">B</tspan></text><rect class="cls-1" x="168.47" y="4" width="18" height="5"/><rect class="cls-1" x="168.47" y="103" width="18" height="5"/></g></g></g></svg>