<svg xmlns="http://www.w3.org/2000/svg" viewBox="0 0 548.57 686.89"><defs><style>.cls-3-sgsg{fill:#000;}.cls-1-sgsg,.cls-2-sgsg,.cls-5-sgsg,.cls-7-sgsg,.cls-9-sgsg{fill:none;}.cls-1-sgsg,.cls-1-sgsg0,.cls-2-sgsg,.cls-3-sgsg,.cls-4,.cls-5-sgsg,.cls-6,.cls-7-sgsg,.cls-8,.cls-9-sgsg{stroke:#000;stroke-miterlimit:10;}.cls-1-sgsg,.cls-4{stroke-width:8px;}.cls-2-sgsg{stroke-width:12px;}.cls-3-sgsg{stroke-width:19px;}.cls-5-sgsg,.cls-6{stroke-width:18px;}.cls-7-sgsg,.cls-8{stroke-width:15px;}.cls-1-sgsg0,.cls-9-sgsg{stroke-width:13px;}</style></defs><title>Asset 6</title><g id="Layer_2" data-name="Layer 2"><g id="Principal"><path class="cls-1-sgsg" d="M226.53,681V521.89c-46.43,0-84.07,36-84.07,80.51,0,43.9,36.68,79.59,82.3,80.49h1.77Z"/><path class="cls-1-sgsg" d="M215.07,522.64s-41.54,50.29,0,160.25"/><path class="cls-1-sgsg" d="M196.61,527.14s-65.46,69.36,0,150.52"/><path class="cls-1-sgsg" d="M167.51,545.06s-45.34,50.93,0,114.67"/><line class="cls-1-sgsg" x1="226.53" y1="603.04" x2="141.78" y2="603.04"/><path class="cls-1-sgsg" d="M226.53,584.05s-61.67-1.57-83.46,8.71"/><path class="cls-1-sgsg" d="M226.53,564.67s-53.6-.53-80,12.84"/><path class="cls-1-sgsg" d="M226.53,545.06s-36.46-4.37-74.28,19.6"/><path class="cls-1-sgsg" d="M226.53,620.22s-61.67,1.57-83.46-8.71"/><path class="cls-1-sgsg" d="M226.53,639.6s-53.6.53-80-12.84"/><path class="cls-1-sgsg" d="M226.53,659.21s-36.46,4.37-74.28-19.6"/><path class="cls-1-sgsg" d="M226.53,681V521.89c46.44,0,84.07,36,84.07,80.51,0,43.9-36.68,79.59-82.3,80.49h-1.77Z"/><path class="cls-1-sgsg" d="M238,522.64s41.54,50.29,0,160.25"/><path class="cls-1-sgsg" d="M256.45,527.14s65.46,69.36,0,150.52"/><path class="cls-1-sgsg" d="M285.55,545.06s45.34,50.93,0,114.67"/><line class="cls-1-sgsg" x1="226.53" y1="603.04" x2="311.28" y2="603.04"/><path class="cls-1-sgsg" d="M226.53,584.05s61.68-1.57,83.47,8.71"/><path class="cls-1-sgsg" d="M226.53,564.67s53.6-.53,80,12.84"/><path class="cls-1-sgsg" d="M226.53,545.06s36.46-4.37,74.28,19.6"/><path class="cls-1-sgsg" d="M226.53,620.22s61.68,1.57,83.47-8.71"/><path class="cls-1-sgsg" d="M226.53,639.6s53.6.53,80-12.84"/><path class="cls-1-sgsg" d="M226.53,659.21s36.46,4.37,74.28-19.6"/><polyline class="cls-2-sgsg" points="265.16 451.92 226.53 420.89 188.66 452.86"/><polyline class="cls-2-sgsg" points="245.25 459.17 227.33 445.88 209.75 459.6"/><polyline class="cls-2-sgsg" points="244.51 481.18 226.6 467.9 209.02 481.61"/><polyline class="cls-2-sgsg" points="245.78 503.16 227.87 489.88 210.29 503.6"/><rect class="cls-3-sgsg" x="76.37" y="47.98" width="299.81" height="299.81" rx="57" transform="translate(-73.65 217.97) rotate(-45)"/><path class="cls-4" d="M109.62,102.55s11.66,20.34,30.66.34,12-28,26-34,29-14,29-14,24-13.63,12.5-42.31Z"/><path class="cls-4" d="M278.54,38.15s-48.26,29.74-23.26,61.74c0,0,14,7,0,12s-38,28-29,49,44,12,44,12,32,2-3,27-8,24,0,44-24,33-24,33-28,49,22,33,44.6-18.6,66.3-5.3l76.29-79.67s26.11-31.33-16.74-74.18Z"/><path class="cls-4" d="M54.28,237.89s4-35,29-40,39,2,39,2,24,14,0,48a46.5,46.5,0,0,0,24,34c22,12,34.31,46.31,10.16,58.16Z"/><path class="cls-4" d="M131.28,154.89s-19,27,11,45c0,0,10,15,4,25s11,20,20,0S189.28,170.89,131.28,154.89Z"/><path class="cls-4" d="M194.28,224.89s-34,5-20,25,21-13,21-13Z"/><g id="points_set_icon"><ellipse class="cls-1-sgsg" cx="86.65" cy="454.68" rx="15.38" ry="15.89" transform="translate(-317.69 229.41) rotate(-50.09)"/><ellipse class="cls-1-sgsg" cx="137.1" cy="396.61" rx="13.98" ry="14.44" transform="translate(-255.08 247.3) rotate(-50.09)"/><ellipse class="cls-1-sgsg" cx="76.53" cy="396.99" rx="16.78" ry="17.33" transform="translate(-277.07 200.97) rotate(-50.09)"/><line class="cls-4" x1="86.31" y1="439.09" x2="81.44" y2="413.43"/><line class="cls-4" x1="93.57" y1="396.25" x2="122.88" y2="395.37"/><line class="cls-4" x1="150.27" y1="387.55" x2="172.19" y2="368.07"/></g><g id="points_set_icon-2" data-name="points_set_icon"><ellipse class="cls-5-sgsg" cx="476.85" cy="338.38" rx="15.89" ry="15.38" transform="translate(-64.07 560.39) rotate(-57.68)"/><ellipse class="cls-5-sgsg" cx="412.63" cy="296.04" rx="14.44" ry="13.98" transform="translate(-58.17 486.43) rotate(-57.68)"/><ellipse class="cls-5-sgsg" cx="421" cy="356.03" rx="17.33" ry="16.78" transform="translate(-104.97 521.42) rotate(-57.68)"/><line class="cls-6" x1="461.44" y1="340.78" x2="436.65" y2="348.99"/><line class="cls-6" x1="418.02" y1="339.23" x2="413.28" y2="310.3"/><line class="cls-6" x1="401.91" y1="284.19" x2="379.71" y2="265.03"/></g><g id="points_set_icon-3" data-name="points_set_icon"><ellipse class="cls-7-sgsg" cx="327.65" cy="460.68" rx="15.38" ry="15.89" transform="translate(-235.93 416.42) rotate(-50.09)"/><ellipse class="cls-7-sgsg" cx="378.1" cy="402.61" rx="13.98" ry="14.44" transform="translate(-173.31 434.31) rotate(-50.09)"/><ellipse class="cls-7-sgsg" cx="317.53" cy="402.99" rx="16.78" ry="17.33" transform="translate(-195.31 387.98) rotate(-50.09)"/><line class="cls-8" x1="327.31" y1="445.09" x2="322.44" y2="419.43"/><line class="cls-8" x1="334.57" y1="402.25" x2="363.88" y2="401.37"/><line class="cls-8" x1="391.27" y1="393.55" x2="413.19" y2="374.07"/></g><g id="points_set_icon-4" data-name="points_set_icon"><ellipse class="cls-1-sgsg" cx="529.02" cy="446.66" rx="15.89" ry="15.38" transform="matrix(0.56, -0.83, 0.83, 0.56, -137.85, 632.82)"/><ellipse class="cls-1-sgsg" cx="466.25" cy="402.21" rx="14.44" ry="13.98" transform="translate(-128.56 561.47) rotate(-55.77)"/><ellipse class="cls-1-sgsg" cx="472.62" cy="462.45" rx="17.33" ry="16.78" transform="translate(-175.58 593.09) rotate(-55.77)"/><line class="cls-4" x1="513.55" y1="448.55" x2="488.49" y2="455.93"/><line class="cls-4" x1="470.2" y1="445.56" x2="466.42" y2="416.48"/><line class="cls-4" x1="455.92" y1="390.01" x2="434.37" y2="370.13"/></g><g id="points_set_icon-5" data-name="points_set_icon"><ellipse class="cls-1-sgsg" cx="435.43" cy="591.79" rx="15.38" ry="15.89" transform="translate(-80.25 68.45) rotate(-8.23)"/><ellipse class="cls-1-sgsg" cx="359.12" cy="601.37" rx="13.98" ry="14.44" transform="matrix(0.99, -0.14, 0.14, 0.99, -82.41, 57.62)"/><ellipse class="cls-1-sgsg" cx="404.48" cy="641.51" rx="16.78" ry="17.33" transform="translate(-87.69 64.53) rotate(-8.23)"/><line class="cls-4" x1="425.29" y1="603.62" x2="411.79" y2="625.99"/><line class="cls-4" x1="391.3" y1="630.69" x2="368.88" y2="611.78"/><line class="cls-4" x1="343.26" y1="599.34" x2="313.94" y2="599.22"/></g><g id="points_set_icon-6" data-name="points_set_icon"><ellipse class="cls-9-sgsg" cx="21.89" cy="602.71" rx="15.38" ry="15.89" transform="translate(-72.96 7.11) rotate(-6.97)"/><ellipse class="cls-9-sgsg" cx="98.4" cy="594.81" rx="13.98" ry="14.44" transform="translate(-71.43 16.33) rotate(-6.97)"/><ellipse class="cls-9-sgsg" cx="53.93" cy="553.68" rx="16.78" ry="17.33" transform="translate(-66.77 10.63) rotate(-6.97)"/><line class="cls-1-sgsg0" x1="32.29" y1="591.1" x2="46.28" y2="569.04"/><line class="cls-1-sgsg0" x1="66.88" y1="564.79" x2="88.87" y2="584.19"/><line class="cls-1-sgsg0" x1="114.21" y1="597.19" x2="143.52" y2="597.96"/></g></g></g></svg>