<svg xmlns="http://www.w3.org/2000/svg" viewBox="0 0 520.18 696.39"><defs><style>.cls-1sgsl,.cls-2sgsl,.cls-4sgsl,.cls-5sgsl,.cls-7sgsl{fill:none;}.cls-1sgsl,.cls-2sgsl,.cls-3sgsl,.cls-4sgsl,.cls-5sgsl,.cls-6sgsl,.cls-7sgsl,.cls-8sgsl,.cls-9sgsl{stroke:#000;stroke-miterlimit:10;}.cls-1sgsl{stroke-width:12px;}.cls-2sgsl{stroke-width:19px;}.cls-3sgsl,.cls-4sgsl{stroke-width:8px;}.cls-5sgsl,.cls-6sgsl{stroke-width:18px;}.cls-7sgsl,.cls-8sgsl{stroke-width:15px;}</style></defs><title>select_geoserver_style_gliph</title><g id="Layer_2" data-name="Layer 2"><g id="Colors"><polyline class="cls-1sgsl" points="236.77 451.92 198.13 420.89 160.27 452.86"/><polyline class="cls-1sgsl" points="216.85 459.17 198.94 445.88 181.36 459.6"/><polyline class="cls-1sgsl" points="216.12 481.18 198.21 467.9 180.63 481.61"/><polyline class="cls-1sgsl" points="217.39 503.16 199.48 489.88 181.9 503.6"/><rect class="cls-2sgsl" x="47.98" y="47.98" width="299.81" height="299.81" rx="57" transform="translate(-81.97 197.89) rotate(-45)"/><path class="cls-3sgsl" d="M81.23,102.55s11.66,20.34,30.66.34,12-28,26-34,29-14,29-14,24-13.63,12.5-42.31Z"/><path class="cls-3sgsl" d="M250.15,38.15s-48.26,29.74-23.26,61.74c0,0,14,7,0,12s-38,28-29,49,44,12,44,12,32,2-3,27-8,24,0,44-24,33-24,33-28,49,22,33,44.6-18.6,66.3-5.3l76.28-79.67s26.12-31.33-16.73-74.18Z"/><path class="cls-3sgsl" d="M25.89,237.89s4-35,29-40,39,2,39,2,24,14,0,48a46.5,46.5,0,0,0,24,34c22,12,34.31,46.31,10.16,58.16Z"/><path class="cls-3sgsl" d="M102.89,154.89s-19,27,11,45c0,0,10,15,4,25s11,20,20,0S160.89,170.89,102.89,154.89Z"/><path class="cls-3sgsl" d="M165.89,224.89s-34,5-20,25,21-13,21-13Z"/><g id="points_set_icon"><ellipse class="cls-4sgsl" cx="58.26" cy="454.68" rx="15.38" ry="15.89" transform="translate(-327.87 207.64) rotate(-50.09)"/><ellipse class="cls-4sgsl" cx="108.71" cy="396.61" rx="13.98" ry="14.44" transform="translate(-265.25 225.53) rotate(-50.09)"/><ellipse class="cls-4sgsl" cx="48.14" cy="396.99" rx="16.78" ry="17.33" transform="translate(-287.25 179.2) rotate(-50.09)"/><line class="cls-3sgsl" x1="57.92" y1="439.09" x2="53.05" y2="413.43"/><line class="cls-3sgsl" x1="65.18" y1="396.25" x2="94.49" y2="395.37"/><line class="cls-3sgsl" x1="121.87" y1="387.55" x2="143.8" y2="368.07"/></g><g id="points_set_icon-2" data-name="points_set_icon"><ellipse class="cls-5sgsl" cx="448.46" cy="338.38" rx="15.89" ry="15.38" transform="translate(-77.28 536.4) rotate(-57.68)"/><ellipse class="cls-5sgsl" cx="384.24" cy="296.04" rx="14.44" ry="13.98" transform="matrix(0.53, -0.85, 0.85, 0.53, -71.38, 462.44)"/><ellipse class="cls-5sgsl" cx="392.61" cy="356.03" rx="17.33" ry="16.78" transform="translate(-118.18 497.42) rotate(-57.68)"/><line class="cls-6sgsl" x1="433.05" y1="340.78" x2="408.26" y2="348.99"/><line class="cls-6sgsl" x1="389.63" y1="339.23" x2="384.89" y2="310.3"/><line class="cls-6sgsl" x1="373.52" y1="284.19" x2="351.32" y2="265.03"/></g><g id="points_set_icon-3" data-name="points_set_icon"><ellipse class="cls-7sgsl" cx="299.26" cy="460.68" rx="15.38" ry="15.89" transform="translate(-246.1 394.64) rotate(-50.09)"/><ellipse class="cls-7sgsl" cx="349.71" cy="402.61" rx="13.98" ry="14.44" transform="translate(-183.49 412.53) rotate(-50.09)"/><ellipse class="cls-7sgsl" cx="289.14" cy="402.99" rx="16.78" ry="17.33" transform="translate(-205.48 366.2) rotate(-50.09)"/><line class="cls-8sgsl" x1="298.92" y1="445.09" x2="294.05" y2="419.43"/><line class="cls-8sgsl" x1="306.18" y1="402.25" x2="335.49" y2="401.37"/><line class="cls-8sgsl" x1="362.87" y1="393.55" x2="384.8" y2="374.07"/></g><g id="points_set_icon-4" data-name="points_set_icon"><ellipse class="cls-4sgsl" cx="500.63" cy="446.66" rx="15.89" ry="15.38" transform="translate(-150.27 609.35) rotate(-55.77)"/><ellipse class="cls-4sgsl" cx="437.86" cy="402.21" rx="14.44" ry="13.98" transform="translate(-140.98 538) rotate(-55.77)"/><ellipse class="cls-4sgsl" cx="444.23" cy="462.45" rx="17.33" ry="16.78" transform="translate(-188 569.62) rotate(-55.77)"/><line class="cls-3sgsl" x1="485.16" y1="448.55" x2="460.1" y2="455.93"/><line class="cls-3sgsl" x1="441.81" y1="445.56" x2="438.03" y2="416.48"/><line class="cls-3sgsl" x1="427.53" y1="390.01" x2="405.98" y2="370.13"/></g><g id="palette_icon"><path class="cls-9sgsl" d="M224.72,638.85c-14,3.48-38.51,15.27-45.84,8.61s-11.66-26.81,18.93-41.18,54.95-24.64,45.72-57.35-54.59-30.17-70.8-23.82a290.3,290.3,0,0,0-32.65,15.73S39.22,600,69.62,663.29,202,678.21,202,678.21s28.63-14.52,35.2-23.15S238.74,635.38,224.72,638.85Zm-133.19-37c5.28-8.15,14.81-12.57,21.3-9.87s7.47,11.48,2.2,19.61-14.81,12.57-21.3,9.87S86.26,610,91.53,601.83Zm15.68,69.23c-6.76,1.8-15.7-3.87-20-12.64S85,641.05,91.77,639.24s15.7,3.87,20,12.64S114,669.24,107.21,671.06Zm31.54-92.67c-5.47,5.15-14.2,6.52-19.5,3.05s-5.16-10.45.33-15.59,14.2-6.51,19.51-3.05S144.24,573.24,138.75,578.39Zm24.7-24.77c-5.41,2.62-11.72,2.42-14.1-.46s.06-7.33,5.45-9.94,11.72-2.42,14.1.47S168.84,551,163.45,553.62Z"/></g><path class="cls-9sgsl" d="M359.3,654.41c-21.84,8.08-74.91-88.43-90.09-117-7.08,2.28-21.38,3-28.07-24.24a20.11,20.11,0,0,0-9.92-12.93c-8.26-4.3,49.58,1.73,42.14,35.33a13.8,13.8,0,0,1-1.36.72C297.12,561.08,381.16,646.32,359.3,654.41Z"/></g></g></svg>