<svg xmlns="http://www.w3.org/2000/svg" viewBox="0 0 86.27 69"><defs><style>.cls-1{fill:#fff;stroke:#fff;stroke-miterlimit:10;}</style></defs><title>palette_icon_1</title><g id="Layer_2" data-name="Layer 2"><g id="Palette"><g id="palette_icon"><path class="cls-1" d="M50.88,47.34c-4.3,1.85-11.68,7.4-14.13,4.93S32.44,41.79,41.66,35,58.26,23.3,54.57,10.36,36.75-.12,31.83,3A89.43,89.43,0,0,0,22,10.36s-30.11,27.12-19,51.77S44.74,64,44.74,64s8.6-6.78,10.44-10.48S55.18,45.49,50.88,47.34ZM8.3,36.57c1.45-3.46,4.32-5.55,6.42-4.66s2.62,4.4,1.17,7.86-4.33,5.55-6.43,4.67S6.84,40,8.3,36.57Zm6.6,27.52c-2.08.94-5-1.07-6.56-4.49s-1.13-7,.94-7.9,5,1.07,6.56,4.48S17,63.14,14.9,64.09Zm7.6-38.5c-1.59,2.26-4.28,3.09-6,1.85s-1.87-4.06-.28-6.31,4.29-3.09,6-1.85S24.09,23.34,22.5,25.59Zm7.12-10.8C28,16,26,16.14,25.2,15.05s-.16-3,1.46-4.19,3.61-1.35,4.43-.26S31.24,13.56,29.62,14.79Z"/></g></g></g></svg>