<svg xmlns="http://www.w3.org/2000/svg" viewBox="0 0 1418.65 591.64"><defs><style>.cls-1{fill:#f99;}.cls-2{fill:#ff9c9c;}.cls-10,.cls-11,.cls-3,.cls-5,.cls-6,.cls-7,.cls-8,.cls-9{fill:none;}.cls-10,.cls-11,.cls-12,.cls-13,.cls-3,.cls-4,.cls-5,.cls-6,.cls-7,.cls-9{stroke:#000;}.cls-10,.cls-11,.cls-12,.cls-13,.cls-3,.cls-4,.cls-5,.cls-6,.cls-7,.cls-8,.cls-9{stroke-miterlimit:10;}.cls-3,.cls-4{stroke-width:8px;}.cls-5{stroke-width:10px;}.cls-6{stroke-width:14px;}.cls-13,.cls-7,.cls-8{stroke-width:4px;}.cls-8{stroke:#42210b;}.cls-9{stroke-width:11px;}.cls-10{stroke-width:5px;}.cls-11,.cls-12{stroke-width:6px;}</style></defs><title>upload_points_gliph_4</title><g id="Layer_2" data-name="Layer 2"><g id="Principal"><g id="UploadingIcon"><g id="Icon"><path d="M665.53,384.15c-3.86,0-5.8-1.85-5.8-2.29v-75.4H637.46c-3.76,0-5.62-1.68-5.7-2.22h0a1.79,1.79,0,0,1,.26-.38l52.74-61.4c.93-1.09,3.12-1.82,5.44-1.82s4.52.73,5.46,1.82l52.73,61.4a1.07,1.07,0,0,1,.26.4c-.08.52-1.94,2.2-5.7,2.2h-24.4v75.4c0,.44-1.93,2.29-5.8,2.29Z"/><path d="M690.2,244.64a5.22,5.22,0,0,1,2.51.52l49.21,57.3H714.55v77.45a6.41,6.41,0,0,1-1.8.24H665.53a6.47,6.47,0,0,1-1.8-.24V302.46H638.49l17.23-20.06,32-37.24a5.15,5.15,0,0,1,2.49-.52m0-8c-3.32,0-6.64,1.07-8.47,3.21l-32.08,37.34-20,23.27-.68.79c-3.56,4.14,1.11,9.21,8.48,9.21h18.27v71.4c0,3.46,4.41,6.29,9.8,6.29h47.22c5.4,0,9.8-2.83,9.8-6.29v-71.4H743c7.37,0,12-5.07,8.48-9.21l-52.74-61.4c-1.84-2.14-5.16-3.21-8.49-3.21Z"/><path d="M573.65,439.75c-4.34,0-8-2.87-8-6.27V344.43c0-3.4,3.66-6.27,8-6.27h66v46.27c0,8,7.31,14.52,16.29,14.52h68.42c9,0,16.29-6.52,16.29-14.52V338.16h68c4.33,0,8,2.87,8,6.27v89.05c0,3.4-3.67,6.27-8,6.27Z"/><path d="M808.65,342.16c2.48,0,4,1.47,4,2.27v89.05c0,.8-1.52,2.27-4,2.27h-235c-2.48,0-4-1.47-4-2.27V344.43c0-.8,1.52-2.27,4-2.27h62v42.27c0,10.21,9.1,18.52,20.29,18.52h68.42c11.19,0,20.29-8.31,20.29-18.52V342.16h64m0-8h-72v50.27c0,5.78-5.53,10.52-12.29,10.52H655.94c-6.76,0-12.29-4.74-12.29-10.52V334.16h-70c-6.6,0-12,4.62-12,10.27v89.05c0,5.65,5.4,10.27,12,10.27h235c6.6,0,12-4.62,12-10.27V344.43c0-5.65-5.4-10.27-12-10.27Z"/></g><g id="UploadingIconButton"><rect class="cls-1" x="584.65" y="354.27" width="13" height="13.37" rx="5.51"/><path class="cls-2" d="M592.14,358.27a1.53,1.53,0,0,1,1.51,1.51v2.35a1.53,1.53,0,0,1-1.51,1.51h-2a1.53,1.53,0,0,1-1.51-1.51v-2.35a1.53,1.53,0,0,1,1.51-1.51h2m0-8h-2a9.54,9.54,0,0,0-9.51,9.51v2.35a9.54,9.54,0,0,0,9.51,9.51h2a9.54,9.54,0,0,0,9.51-9.51v-2.35a9.54,9.54,0,0,0-9.51-9.51Z"/></g></g><g id="LoadingLine"><g id="LoadingLine_1"><path d="M336.22,286.34l13.58,10.55a1.43,1.43,0,0,1,.64,1.09c.12.95-.31,2.66-1.87,4.63L321.39,337a8.37,8.37,0,0,1-4.54,3.25l-14.2-11a8.28,8.28,0,0,1,2.1-5l27.18-34.4a11.76,11.76,0,0,1,4.29-3.45m.65-5.25c-2.12,0-6,2-8.86,5.6l-27.18,34.4c-3.52,4.45-4.23,9.77-1.58,11.83l14.86,11.54a4.15,4.15,0,0,0,2.59.82c2.67,0,6.05-1.93,8.62-5.17l27.18-34.4c3.51-4.45,4.22-9.78.37-12.77L338,281.4a1.82,1.82,0,0,0-1.14-.31Z"/></g><g id="LoadingLine_2"><path d="M404.83,224.35l11.42,14.37c.12.15.17.25.18.25h0s-.18,1.47-3.65,4.14L378,269.9a9,9,0,0,1-5,2.08h-.25L361.7,257.85a8.43,8.43,0,0,1,3.28-4.39l34.82-26.79a12,12,0,0,1,5-2.32m.68-5.06a15.62,15.62,0,0,0-8.76,3.42L361.94,249.5c-4.51,3.47-6.51,8.46-4.44,11.1l11.57,14.77A4.76,4.76,0,0,0,373,277a13.79,13.79,0,0,0,8-3.12l34.81-26.79c4.51-3.46,7.37-7.6,4.37-11.44L407.76,220a2.89,2.89,0,0,0-2.25-.71Z"/></g><g id="LoadingLine_3"><path d="M493.12,203.64h0a11.61,11.61,0,0,1,4.47.84l1.31,17a1.47,1.47,0,0,1-.37,1.18c-.64.74-2.23,1.6-4.78,1.79l-43.94,3.32c-.32,0-.64,0-.95,0a7.91,7.91,0,0,1-4.53-1.13L443,208.9a8.54,8.54,0,0,1,5.24-1.9l43.94-3.32c.32,0,.65,0,1,0m0-5c-.44,0-.9,0-1.36.05L447.82,202c-5.69.43-10.13,3.51-9.87,6.84l1.43,18.65c.23,3.06,4.38,5.32,9.48,5.32.43,0,.88,0,1.32,0l43.95-3.32c5.68-.43,10.13-3.51,9.76-8.35l-1.44-18.65c-.13-1.67-4.25-3.81-9.33-3.81Z"/></g><g id="LoadingLine_4"><path d="M543.58,211h0a8.82,8.82,0,0,1,4.08,1.24l38.45,21.35a8.51,8.51,0,0,1,3.92,3.86l-8.81,15.59a3.78,3.78,0,0,1-.84.08,10.16,10.16,0,0,1-4.62-1.36l-38.45-21.35a11.92,11.92,0,0,1-4.06-3.62l8.4-14.87c.18-.32.52-.92,1.93-.92m0-5a6.83,6.83,0,0,0-6.28,3.46l-9.22,16.33c-.9,1.58,1.83,6.23,6.8,9l38.46,21.35a14.93,14.93,0,0,0,7,2c2.28,0,4.14-.76,5-2.26l9.22-16.33c1.65-2.91-1.08-7.55-6.05-10.31l-38.46-21.35a13.68,13.68,0,0,0-6.5-1.87Z"/></g><g id="LoadingLine_5"><path d="M621.22,259.09a8.63,8.63,0,0,1,4.21,1.42l26.11,16-12.72,16.74-24.51-15a11.87,11.87,0,0,1-3.9-3.78l9-14.5a1.78,1.78,0,0,1,1.78-.85m0-5a6.76,6.76,0,0,0-6,3.2l-9.91,15.92c-1,1.55,1.55,6.3,6.41,9.28l28.37,17.36,18.79-24.74L628,256.25a13.35,13.35,0,0,0-6.82-2.16Z"/></g><g id="LoadingLine_6"><path d="M820.29,382.94l31.92,17.72a8.47,8.47,0,0,1,3.92,3.87l-8.8,15.58a3.64,3.64,0,0,1-.84.09,9.93,9.93,0,0,1-4.62-1.38l-21.58-12v-23.9m-5-8.47v35.32l24.15,13.41a15,15,0,0,0,7,2c2.28,0,4.14-.76,5-2.27l9.22-16.32c1.65-2.91-1.08-7.56-6.06-10.32l-38.45-21.35c-.3-.17-.6-.32-.9-.47Z"/></g><g id="LoadingLine_7"><path d="M884.55,418.18h0a9.84,9.84,0,0,1,3.26.62l41.54,14.59a8.51,8.51,0,0,1,4.54,3.16l-6,16.82a5,5,0,0,1-2,.32,11,11,0,0,1-3.64-.67l-41.54-14.59a12,12,0,0,1-4.63-2.89l5.74-16.06c.13-.36.46-1.3,2.7-1.3m0-5c-3.43,0-6.29,1.47-7.41,4.61l-6.3,17.64c-.61,1.71,2.87,5.83,8.24,7.72l41.54,14.59a16.24,16.24,0,0,0,5.3.95c3.21,0,5.78-1.16,6.52-3.24l6.3-17.63c1.13-3.14-2.35-7.26-7.73-9.15l-41.54-14.59a15,15,0,0,0-4.92-.9Z"/></g><g id="LoadingLine_8"><path d="M1020.3,436.17h0a8,8,0,0,1,4.7,1.2l1.09,17.81a8.56,8.56,0,0,1-5.27,1.81l-44,2.63-.77,0a11.53,11.53,0,0,1-4.67-.91l-1-17a1.48,1.48,0,0,1,.39-1.18c.65-.73,2.25-1.56,4.81-1.71l44-2.63c.25,0,.5,0,.75,0m0-5-1,0-44,2.62c-5.7.34-10.19,3.35-9.89,8.19l1.13,18.68c.1,1.7,4.34,3.95,9.56,3.95l1.07,0,44-2.63c5.69-.34,10.19-3.34,10-6.67L1030,436.64c-.19-3.13-4.44-5.47-9.67-5.47Z"/></g><g id="LoadingLine_9"><path d="M1104.2,403.23h0a4.22,4.22,0,0,1,1.24.16l7.7,16.14a8.45,8.45,0,0,1-4.18,3.59l-39.83,18.7a12.31,12.31,0,0,1-5,1.19h-.38l-7.37-15.43a1.41,1.41,0,0,1-.08-1.23c.32-.91,1.49-2.26,3.79-3.34l39.83-18.7a10.42,10.42,0,0,1,4.3-1.07m0-5a15.46,15.46,0,0,0-6.42,1.54l-39.84,18.7c-5.15,2.42-8.19,6.87-6.09,11.25l8.07,16.91c.4.84,2,1.38,4.19,1.38a17.29,17.29,0,0,0,7.15-1.66l39.83-18.7c5.15-2.42,8.19-6.87,6.75-9.89l-8.07-16.9c-.83-1.73-2.94-2.63-5.57-2.63Z"/></g><g id="LoadingLine_10"><path d="M1162.79,342.85l14.48,10.69a8.38,8.38,0,0,1-2,5.09l-26.33,35a11.9,11.9,0,0,1-4.2,3.55L1130.92,387a1.47,1.47,0,0,1-.67-1.07c-.14-.95.25-2.67,1.76-4.68l26.33-35a8.25,8.25,0,0,1,4.45-3.36m.17-5c-2.69,0-6.09,2-8.62,5.38l-26.33,35c-3.41,4.53-4,9.87-.06,12.77l15.13,11.18a1.81,1.81,0,0,0,1.07.28c2.11,0,6-2.07,8.81-5.81l26.33-35c3.4-4.53,4-9.87,1.28-11.86l-15.13-11.18a4.06,4.06,0,0,0-2.48-.76Z"/></g></g><g id="ServerSide"><path class="cls-3" d="M1262.24,198.64v116.6a20.15,20.15,0,0,0-8.16,1.53c-5.24,2.16-9.4,6.4-12.55,11.37a47.25,47.25,0,0,0-3.75,7.23c-3.3,7.82-4.51,15.84-3.91,19.78l-.09,0h0a79.58,79.58,0,0,1-27.65-18,81.08,81.08,0,0,1-23.82-57c0-.21,0-.43,0-.64a81.42,81.42,0,0,1,.58-9.68,80.09,80.09,0,0,1,3.32-15.33A80.91,80.91,0,0,1,1206.06,222l.06-.06a79.72,79.72,0,0,1,27.65-18h0a77.84,77.84,0,0,1,17.56-4.53A79.88,79.88,0,0,1,1262.24,198.64Z"/><path class="cls-3" d="M1241.53,328.14q-1.58-6.25-2.78-12.2-2-9.82-3.13-18.78c-.76-5.94-1.26-11.61-1.55-17-.35-6.68-.36-12.93-.11-18.74a166.26,166.26,0,0,1,1.83-18.59,135.57,135.57,0,0,1,4.65-20.1c5-15.74,10.91-23.34,10.91-23.34"/><path class="cls-3" d="M1233.79,203.92s-62.25,69.67,0,151.21"/><path class="cls-3" d="M1206.12,221.92s-43.12,51.17,0,115.2"/><line class="cls-3" x1="1262.24" y1="280.16" x2="1181.65" y2="280.16"/><path class="cls-3" d="M1262.24,261.09s-58.65-1.58-79.37,8.74"/><path class="cls-3" d="M1262.24,241.62s-51-.54-76,12.9"/><path class="cls-3" d="M1262.24,221.92s-34.67-4.39-70.63,19.69"/><path class="cls-3" d="M1262.24,297.42s-58.65,1.59-79.37-8.74"/><path class="cls-3" d="M1186.19,304c1.55.84,3.21,1.61,4.94,2.34a108.72,108.72,0,0,0,19.93,5.86,234.22,234.22,0,0,0,27.69,3.75c6,.47,11.27.71,15.33.83"/><path class="cls-3" d="M1237.78,335.37a118.87,118.87,0,0,1-41.42-15.45c-1.58-1-3.17-2-4.76-3"/><path class="cls-3" d="M1342.19,279.52c0,.21,0,.43,0,.64,0,2.21-.12,4.41-.3,6.57a33.41,33.41,0,0,0-4.71.1,36.25,36.25,0,0,0-19,7.92l-.92.74c-6.43,5.27-11.47,12.2-15.22,18.67a101.22,101.22,0,0,0-8.59,19,95,95,0,0,0-9.55-8.68,48,48,0,0,0-13.45-7.72,25.73,25.73,0,0,0-8.16-1.53V198.64a80,80,0,0,1,10.9.75,78.12,78.12,0,0,1,17.56,4.53h0a79.9,79.9,0,0,1,27.65,18l.06.06.07.08a80.91,80.91,0,0,1,19.79,32.45,79.34,79.34,0,0,1,3.32,15.33A81.42,81.42,0,0,1,1342.19,279.52Z"/><path class="cls-3" d="M1283.85,324.49q1-4.35,1.88-8.55,2-9.82,3.14-18.78c.76-5.94,1.26-11.61,1.54-17,.36-6.68.37-12.93.11-18.74a166.37,166.37,0,0,0-1.82-18.59,135.48,135.48,0,0,0-4.66-20.1c-5-15.74-10.9-23.34-10.9-23.34"/><path class="cls-3" d="M1290.7,203.92h0a115.53,115.53,0,0,1,15.41,24.26,126.35,126.35,0,0,1,7.13,18.09,117.24,117.24,0,0,1,3.93,17.36,111.42,111.42,0,0,1,1.18,16.52,107,107,0,0,1-1.07,14.7l-.09.63"/><path class="cls-3" d="M1318.37,221.92l.06.06.07.08a85.23,85.23,0,0,1,10.07,16.8,99,99,0,0,1,5.08,13.43,94.86,94.86,0,0,1,3.23,15.59,93.7,93.7,0,0,1,.65,12.28q0,3.29-.36,6.67"/><line class="cls-3" x1="1262.24" y1="280.16" x2="1342.84" y2="280.16"/><path class="cls-3" d="M1262.24,261.09s58.65-1.58,79.37,8.74"/><path class="cls-3" d="M1262.24,241.62s51-.54,76,12.9"/><path class="cls-3" d="M1262.24,221.92s34.68-4.39,70.64,19.69"/><path class="cls-3" d="M1318.13,294.75l-.83.11c-9.33,1.28-19.45,2-28.43,2.3-14.86.57-26.63.26-26.63.26"/><path class="cls-3" d="M1270.4,316.77c4.06-.12,9.36-.36,15.33-.83,5.07-.4,10.6-1,16.26-1.78"/><path class="cls-3" d="M1411.63,394.36H1207.84c-8.45-25.5-.09-36.72,26.41-37.74a5.59,5.59,0,0,1-.38-1.47c-.6-3.94.61-12,3.91-19.78a47.25,47.25,0,0,1,3.75-7.23c3.15-5,7.31-9.21,12.55-11.37a20.15,20.15,0,0,1,8.16-1.53,25.73,25.73,0,0,1,8.16,1.53,48,48,0,0,1,13.45,7.72,95,95,0,0,1,9.55,8.68,101.22,101.22,0,0,1,8.59-19c3.75-6.47,8.79-13.4,15.22-18.67l.92-.74a36.25,36.25,0,0,1,19-7.92,33.41,33.41,0,0,1,4.71-.1,42.29,42.29,0,0,1,14.9,3.61c44.49,19.07,24.29,72.41,24.29,72.41C1383.34,358.26,1426.2,348.19,1411.63,394.36Z"/><path class="cls-4" d="M1373.91,341.84l.07-7.76-10.4-2a19.12,19.12,0,0,0-2-4.42l5.58-8.24-5.93-5.38-8.28,5.76a21.57,21.57,0,0,0-4-1.54l-2-9.74-8.34-.06-1.59,9.75a22.24,22.24,0,0,0-4,1.47l-8.7-5.72-5.94,5.38,5.88,8.15a18.94,18.94,0,0,0-2,4.25l-10.43,1.87-.06,7.76,10.3,1.74a19.86,19.86,0,0,0,1.67,4l-6.27,7.72,5.6,5.69,9-5.21a20.82,20.82,0,0,0,4.59,1.78l1.8,9.74,8,.18,1.87-9.63.26-.07a21.07,21.07,0,0,0,4.87-1.9L1362,361l5.81-5.5-5.89-8.25a19.5,19.5,0,0,0,1.67-3.87ZM1343,349.39c-6.94-.06-12.52-5.4-12.47-11.94s5.73-11.79,12.67-11.73,12.51,5.4,12.45,11.93S1349.9,349.45,1343,349.39Z"/><path class="cls-5" d="M1359.63,134.13c14.74,1.47,25,14.75,23,29.67s-15.64,25.82-30.38,24.35-25-14.75-23-29.67,15.64-25.82,30.37-24.35"/><path d="M1263,129.49a24.89,24.89,0,0,0-24.42,21.4,22.73,22.73,0,0,0,20.32,26q1.2.12,2.37.12a24.89,24.89,0,0,0,24.42-21.41,22.72,22.72,0,0,0-20.32-26q-1.2-.12-2.37-.12Z"/><path class="cls-5" d="M1375.67,223.09a13.7,13.7,0,0,0-15,11.46,12.53,12.53,0,0,0,11.47,14.11,13.68,13.68,0,0,0,15-11.46,12.53,12.53,0,0,0-11.47-14.11l-15.1-35.42"/><line class="cls-6" x1="1262.65" y1="165.64" x2="1262.65" y2="198.92"/><line class="cls-6" x1="1328.65" y1="160.64" x2="1281.65" y2="157.64"/><path class="cls-7" d="M1133.36,220.49s18.14-29.57,18.69-35.34-2.52-8.31-2.52-8.31"/><polyline class="cls-7" points="1085.79 81.19 1098.52 88.38 1110.04 94.89"/><polyline class="cls-7" points="1095.02 68.25 1107.71 75.41 1119.8 82.25"/><polyline class="cls-7" points="1078.16 41.11 1089.49 47.5 1100.58 53.76"/><polyline class="cls-7" points="1104 55.69 1116.64 62.82 1128.98 69.8"/><polyline class="cls-7" points="1085.8 27.78 1085.96 27.86 1098.43 34.91 1109.5 41.16"/><polyline class="cls-7" points="1112.97 43.12 1125.56 50.23 1138.17 57.36"/><polyline class="cls-7" points="1094.99 15.33 1107.37 22.33 1118.42 28.57"/><polyline class="cls-7" points="1121.93 30.56 1134.48 37.65 1147.35 44.92"/><polyline class="cls-7" points="947.43 282.19 959.38 289.92 969.64 296.56 969.81 296.67"/><polyline class="cls-8" points="924.4 267.28 924.63 267.43 934.12 273.57 944.5 280.29"/><polyline class="cls-7" points="933.06 255.1 942.63 261.29 952.99 267.99"/><polyline class="cls-7" points="955.97 269.92 967.88 277.62 978.11 284.24"/><polyline class="cls-7" points="940.64 242.2 940.93 242.39 951.13 249 961.48 255.69"/><polyline class="cls-7" points="964.51 257.65 976.38 265.33 987.12 272.29"/><polyline class="cls-7" points="948.97 230.82 959.15 237.41 969.48 244.1"/><polyline class="cls-7" points="972.56 246.09 984.39 253.74 995.09 260.68"/><polyline class="cls-7" points="956.91 218.16 967.66 225.12 977.98 231.79"/><polyline class="cls-8" points="965.4 206.38 975.92 213.18 986.22 219.85"/><polyline class="cls-7" points="1114.8 216.68 1125.96 224.19 1127.81 220.81 1116.88 213.69"/><path class="cls-7" d="M1126,224.19s1.42,6.55,5,6.83a5.36,5.36,0,0,0,5-2.29l1-2.42s.08-3.52-1.35-4.47-3.79-3-7.79-1"/><polyline class="cls-7" points="981.1 233.82 992.88 241.44 1004.11 248.72"/><polyline class="cls-8" points="972.46 193.65 972.6 193.74 984.19 201.24 994.47 207.91"/><polyline class="cls-7" points="1051.38 78.88 1051.7 79.06 1062.68 85.26 1073.82 91.54"/><polyline class="cls-7" points="1077.07 93.39 1089.85 100.6 1101.42 107.13"/><polyline class="cls-7" points="1060.39 66.86 1071.35 73.04 1082.47 79.32"/><polyline class="cls-7" points="1068.98 53.55 1080.56 60.08 1091.66 66.35"/><line class="cls-7" x1="1006.15" y1="110.55" x2="981.5" y2="94.64"/><path class="cls-7" d="M985.32,156.63s-.22,2.92-3.61,1.2-27-18.77-27-18.77-2.21-3.5.76-10.74S972.38,100.59,976.19,98A44.28,44.28,0,0,1,984,93.41c1-.33,28.89,18.51,28.89,18.51s.31,4.8.83,4.64"/><path class="cls-7" d="M1012.53,111.69s-5-3.31-7.59-.4-24.43,35-24.43,35a10.07,10.07,0,0,0-1.27,5.3c.25,2.72,1.08,5.43,1.77,5.82"/><path class="cls-7" d="M1053.07,201.75s.44,3.36,1.16,3.83c0,0,6.64-15.05,13.43-24.89s13.79-18.72,18-20.05c0,0-4.67.8-5.66,1.63"/><path class="cls-7" d="M1054.23,205.58s-2.25,7.71.23,8.33,9.55,1.18,20.88-16.41"/><path class="cls-7" d="M1085.35,183.14s9.1-15.47,7-22.5c0,0-4.68-2.38-9.67,2"/><path class="cls-7" d="M1078.22,199.4l-6.47-4.26a5.3,5.3,0,0,1,.22-5c1.52-2.58,5.07-7.9,5.07-7.9s1.33-3.22,3.48-1.8,7,4.09,7,4.09S1080.31,192.09,1078.22,199.4Z"/><path class="cls-7" d="M1078.22,199.4a47.67,47.67,0,0,0-2.43,33.66c5.61,18.52,19.06,26.86,19.06,26.86s-.72-13.76,21.33-45.24,33.35-37.84,33.35-37.84-17.37-9.9-31.39-6.87-17.36,3.39-30.63,14.59"/><path class="cls-7" d="M1094.85,259.92s3.07,2.53,6.68-.71,22.28-21.85,26.12-30.71"/><polyline class="cls-7" points="1000.41 177.81 992.45 189.31 984.19 201.24 975.92 213.18 967.66 225.12 959.15 237.41 951.13 249 942.63 261.29 934.12 273.57 926.73 284.25 926.29 284.88"/><line class="cls-7" x1="951.43" y1="301.43" x2="1025.71" y2="193.95"/><polyline class="cls-7" points="989.4 221.9 1001.14 229.5 1012.6 236.94"/><polyline class="cls-7" points="997.69 209.99 1009.39 217.56 1021.1 225.16"/><polyline class="cls-7" points="980.95 181.86 992.45 189.31 1002.72 195.96"/><polyline class="cls-7" points="1005.98 198.08 1017.64 205.63 1029.59 213.37"/><polygon class="cls-7" points="944.5 280.29 937.01 291.14 926.73 284.25 917.65 278.17 924.63 267.43 940.93 242.39 972.6 193.74 988.2 169.77 1010.83 184.21 1002.72 195.96 994.47 207.91 986.22 219.85 977.98 231.79 969.48 244.1 961.48 255.69 952.99 267.99 944.5 280.29"/><polygon class="cls-7" points="1038.08 201.59 987.12 272.29 969.64 296.56 961.64 307.65 951.72 301 939.86 293.05 947.43 282.19 955.97 269.92 964.51 257.65 972.56 246.09 981.1 233.82 989.4 221.9 997.69 209.99 1005.98 198.08 1014.16 186.33 1038.08 201.59"/><path class="cls-7" d="M1053.41,143.2l27,18.77c-14,10.72-26.94,40-26.94,40l-28.2-19.07-2.18,4.19-6.46-4.26-2.43,3.49L1006,198.08,997.69,210,989.4,221.9l-8.3,11.92-8.54,12.27-8,11.56L956,269.92l-8.54,12.27-7.57,10.86L937,291.14l7.49-10.85L953,268l8.49-12.3,8-11.59,8.5-12.31,8.24-11.94,8.25-11.95,8.25-11.94,8.11-11.75,2.69-3.9-5.74-3.78,1.65-4-25.85-17c-1.44-1-1.36-4.48-1.36-4.48s18.92-30.47,22.67-35.16,8.11.24,8.11.24l24.42,16.07,1.52-2.58,5.74,3.78,76.57-107.5,2.87,1.9-76.57,107.5,7.38,5.36Z"/><polyline class="cls-7" points="1115.98 10.2 1107.37 22.33 1098.43 34.91 1089.49 47.5 1080.56 60.08 1071.35 73.04 1062.68 85.26 1053.48 98.22 1044.27 111.17 1036.28 122.44 1035.81 123.1"/><line class="cls-7" x1="1062.87" y1="138.65" x2="1143.22" y2="25.34"/><polyline class="cls-7" points="1033.81 105.27 1034.06 105.41 1044.27 111.17 1055.44 117.48"/><polyline class="cls-7" points="1058.6 119.26 1071.47 126.52 1082.51 132.75 1082.69 132.85"/><polyline class="cls-7" points="1043.18 92.41 1053.48 98.22 1064.63 104.51"/><polyline class="cls-7" points="1067.84 106.32 1080.66 113.55 1091.67 119.77"/><polygon class="cls-7" points="1055.71 117.63 1048.07 128.44 1036.28 122.44 1026.5 116.7 1034.06 105.41 1051.7 79.06 1085.96 27.86 1102.84 2.64 1127.2 16.18 1118.42 28.57 1109.5 41.16 1100.58 53.76 1091.66 66.35 1082.47 79.32 1073.82 91.54 1065.39 104.07 1055.71 117.63"/><polygon class="cls-7" points="1156.54 32.48 1101.42 107.13 1082.51 132.75 1073.87 144.46 1063.18 138.2 1050.94 130.33 1058.6 119.26 1067.84 106.32 1077.07 93.39 1085.79 81.19 1095.02 68.25 1104 55.69 1112.97 43.12 1121.93 30.56 1130.78 18.17 1156.54 32.48"/><line class="cls-7" x1="997.94" y1="126.14" x2="1068.3" y2="175.22"/><line class="cls-7" x1="1004.89" y1="115.85" x2="1077.37" y2="164.55"/><line class="cls-7" x1="997.51" y1="121.6" x2="971.07" y2="103.71"/><path class="cls-7" d="M1076.39,183.25l7.86,4.79s26.39-17.83,56-3.21"/><path class="cls-7" d="M1146,179.53s-26.11-16-52.35.13"/><path class="cls-7" d="M1137.07,243c.63.29,9,1.18,12.88,20.82"/><line class="cls-7" x1="1142.98" y1="231.5" x2="1163.36" y2="243.55"/><path class="cls-7" d="M1174.88,220.05s-8.55,6.35-24.1,1"/></g><g id="ClientSide"><path d="M206.47,367.45a32.7,32.7,0,0,0-32.08,28.12,29.87,29.87,0,0,0,26.7,34.13c1,.1,2.08.15,3.11.15a32.71,32.71,0,0,0,32.08-28.12,30.09,30.09,0,0,0-29.81-34.28Z"/><path d="M258,249.49a24.89,24.89,0,0,0-24.42,21.4,22.73,22.73,0,0,0,20.32,26q1.2.12,2.37.12a24.89,24.89,0,0,0,24.42-21.41,22.72,22.72,0,0,0-20.32-26q-1.2-.12-2.37-.12Z"/><path d="M130.9,284.77a30.74,30.74,0,0,0-30.16,26.44,28.08,28.08,0,0,0,25.1,32.09,28.87,28.87,0,0,0,2.93.14A30.74,30.74,0,0,0,158.93,317a28.08,28.08,0,0,0-25.1-32.08,29,29,0,0,0-2.93-.15Z"/><path d="M195.62,183.69v10c.71,0,1.43,0,2.15.11a20.11,20.11,0,0,1,13.92,7.55,20.67,20.67,0,0,1,4.16,15.76A23.26,23.26,0,0,1,193.28,237c-.71,0-1.44,0-2.15-.11a20,20,0,0,1-13.92-7.55A20.63,20.63,0,0,1,173,213.59a23.27,23.27,0,0,1,22.58-19.9v-10m0,0a33.17,33.17,0,0,0-32.49,28.54A30.44,30.44,0,0,0,193.28,247a33.14,33.14,0,0,0,32.48-28.54,30.26,30.26,0,0,0-27-34.62c-1.06-.1-2.1-.16-3.14-.16Z"/><path d="M85,418h0c.56,0,1.12,0,1.67.08a15.55,15.55,0,0,1,10.79,5.86,16.39,16.39,0,0,1,3.28,12.5A18.43,18.43,0,0,1,82.9,452.28a15.86,15.86,0,0,1-12.45-5.94,16.35,16.35,0,0,1-3.28-12.5C68.38,425,76.2,418,85,418m0-10a28.36,28.36,0,0,0-27.71,24.48c-2,14.92,8.25,28.2,23,29.67a26.46,26.46,0,0,0,2.66.13,28.36,28.36,0,0,0,27.72-24.48c2-14.92-8.25-28.2-23-29.67A26.46,26.46,0,0,0,85,408Z"/><line class="cls-9" x1="84.5" y1="415.83" x2="117.15" y2="334.14"/><line class="cls-5" x1="147.65" y1="327.64" x2="193.65" y2="377.64"/><line class="cls-5" x1="209.31" y1="236.07" x2="243.65" y2="260.64"/><line class="cls-6" x1="253.81" y1="288.06" x2="216.65" y2="377.64"/><path class="cls-5" d="M35.63,237.13c14.74,1.47,25,14.75,23,29.67S43,292.62,28.24,291.15s-25-14.75-23-29.67,15.64-25.82,30.37-24.35"/><line class="cls-5" x1="117.65" y1="299.64" x2="58.65" y2="269.64"/><polyline class="cls-10" points="368.09 416.14 368.09 441.25 387.65 441.25"/><path class="cls-10" d="M383.92,548H293.57a3.67,3.67,0,0,1-3.72-3.59V419.73a3.67,3.67,0,0,1,3.72-3.59h74.52l19.56,22.42v105.8A3.68,3.68,0,0,1,383.92,548Z"/><line class="cls-10" x1="305.68" y1="441.25" x2="346.2" y2="441.25"/><line class="cls-10" x1="305.68" y1="454.7" x2="347.13" y2="454.7"/><line class="cls-10" x1="305.68" y1="468.15" x2="374.14" y2="468.15"/><line class="cls-10" x1="305.68" y1="481.6" x2="374.14" y2="481.6"/><g id="points_set_icon"><ellipse class="cls-11" cx="318.95" cy="527.26" rx="8.39" ry="8.58"/><ellipse class="cls-11" cx="360.92" cy="528.04" rx="7.63" ry="7.8"/><ellipse class="cls-11" cx="339.55" cy="503.07" rx="9.16" ry="9.36"/><line class="cls-12" x1="325.35" y1="521.72" x2="334.39" y2="510.8"/><line class="cls-12" x1="345.83" y1="509.87" x2="356.46" y2="521.72"/></g><path class="cls-13" d="M290,516.86l-41.15.08-21.61-16.07H194a3.21,3.21,0,0,0-3.32,3.07v82.64a3.2,3.2,0,0,0,3.32,3.06H318.63a3.2,3.2,0,0,0,3.33-3.08l-.3-39.39-31.27.38Z"/></g></g></g></svg>