<svg xmlns="http://www.w3.org/2000/svg" viewBox="0 0 123.12 144.76"><defs><style>.cls-1{fill:#fff;}.cls-1,.cls-2,.cls-3,.cls-4,.cls-5{stroke:#fff;}.cls-1,.cls-2,.cls-3,.cls-4{stroke-miterlimit:10;}.cls-2,.cls-4,.cls-5{fill:none;}.cls-2,.cls-3{stroke-width:8px;}.cls-4,.cls-5{stroke-width:7px;}.cls-5{stroke-linejoin:round;}</style></defs><title>Asset 41</title><g id="Layer_2" data-name="Layer 2"><g id="User"><g id="user_datapoints_icon"><ellipse class="cls-1" cx="34.79" cy="24.8" rx="24.1" ry="24.3"/><path class="cls-1" d="M57.31,51h-45A11.86,11.86,0,0,0,.5,62.84v65.68H33.56c0-.5-.06-1-.06-1.52,0-11.6,9-21,20-21a17.92,17.92,0,0,1,2.09.12A20,20,0,0,1,69,74.15l0-4.15V62.84A11.87,11.87,0,0,0,57.31,51Z"/><g id="points_set_icon"><ellipse class="cls-2" cx="56.41" cy="130.16" rx="10.75" ry="10.59" transform="translate(-23.82 13.17) rotate(-11.01)"/><ellipse class="cls-2" cx="109.35" cy="120.84" rx="9.77" ry="9.63" transform="translate(-21.07 23.11) rotate(-11.01)"/><ellipse class="cls-2" cx="76.61" cy="95.82" rx="11.73" ry="11.56" transform="translate(-16.89 16.39) rotate(-11.01)"/><line class="cls-3" x1="63.15" y1="121.88" x2="71.94" y2="106.45"/><line class="cls-3" x1="86.1" y1="102.53" x2="102.26" y2="114.27"/></g><line class="cls-4" x1="95.28" y1="60" x2="95.28" y2="87.79"/><line class="cls-5" x1="108.5" y1="73.88" x2="81.5" y2="73.88"/></g></g></g></svg>