<svg xmlns="http://www.w3.org/2000/svg" viewBox="0 0 108.5 154"><defs><style>.cls-1,.cls-4{fill:#fff;}.cls-1,.cls-2,.cls-3{stroke:#fff;}.cls-1,.cls-2{stroke-miterlimit:10;}.cls-2,.cls-3{fill:none;stroke-width:7px;}.cls-3{stroke-linejoin:round;}</style></defs><title>user_users_icon</title><g id="Layer_2" data-name="Layer 2"><g id="User"><g id="user_users_icon"><path class="cls-1" d="M34.79.5A24.3,24.3,0,1,1,10.7,24.8,24.2,24.2,0,0,1,34.79.5"/><path class="cls-1" d="M57.31,51h-45A11.86,11.86,0,0,0,.5,62.84v65.68l37.5,0a8.34,8.34,0,0,1,0-1c0-11.6,4.45-21.5,15.5-21.5a17.92,17.92,0,0,1,2.09.12A20,20,0,0,1,69,74.15l0-4.15V62.84A11.87,11.87,0,0,0,57.31,51Z"/><line class="cls-2" x1="95.28" y1="60" x2="95.28" y2="87.79"/><line class="cls-3" x1="108.5" y1="73.88" x2="81.5" y2="73.88"/><circle class="cls-4" cx="73" cy="93.5" r="16.5"/><rect class="cls-4" x="42.5" y="111" width="59" height="43" rx="15"/></g></g></g></svg>