<svg xmlns="http://www.w3.org/2000/svg" viewBox="0 0 86.27 69"><defs><style>.cls-1,.cls-2{stroke:#000;stroke-miterlimit:10;}.cls-2{fill:none;stroke-width:3px;}</style></defs><title>user_default_icon</title><g id="Layer_2" data-name="Layer 2"><g id="User"><g id="user_icon"><circle class="cls-1" cx="36.5" cy="26.5" r="26"/><path class="cls-1" d="M74.5,63.5V75.64A37.51,37.51,0,0,0,30,130.5H.5v-67a9,9,0,0,1,9-9h56A9,9,0,0,1,74.5,63.5Z"/><g id="Earth"><path class="cls-2" d="M62.25,142.24V78c-18.49,0-33.48,14.55-33.48,32.5,0,17.73,14.61,32.14,32.78,32.5h.7Z"/><path class="cls-2" d="M57.69,78.3s-16.54,20.3,0,64.7"/><path class="cls-2" d="M50.33,80.12s-26.06,28,0,60.77"/><path class="cls-2" d="M38.75,87.36s-18.06,20.56,0,46.29"/><line class="cls-2" x1="62.25" y1="110.76" x2="28.5" y2="110.76"/><path class="cls-2" d="M62.25,103.1s-24.56-.64-33.24,3.51"/><path class="cls-2" d="M62.25,95.27s-21.35-.21-31.84,5.18"/><path class="cls-2" d="M62.25,87.36s-14.52-1.77-29.58,7.91"/><path class="cls-2" d="M62.25,117.7s-24.56.63-33.24-3.52"/><path class="cls-2" d="M62.25,125.52s-21.35.22-31.84-5.18"/><path class="cls-2" d="M62.25,133.44s-14.52,1.76-29.58-7.92"/><path class="cls-2" d="M62.25,142.24V78c18.49,0,33.48,14.55,33.48,32.5,0,17.73-14.61,32.14-32.78,32.5h-.7Z"/><path class="cls-2" d="M66.81,78.3s16.54,20.3,0,64.7"/><path class="cls-2" d="M74.17,80.12s26.06,28,0,60.77"/><path class="cls-2" d="M85.75,87.36s18.06,20.56,0,46.29"/><line class="cls-2" x1="62.25" y1="110.76" x2="96" y2="110.76"/><path class="cls-2" d="M62.25,103.1s24.56-.64,33.24,3.51"/><path class="cls-2" d="M62.25,95.27s21.35-.21,31.84,5.18"/><path class="cls-2" d="M62.25,87.36s14.52-1.77,29.58,7.91"/><path class="cls-2" d="M62.25,117.7s24.56.63,33.24-3.52"/><path class="cls-2" d="M62.25,125.52s21.35.22,31.84-5.18"/><path class="cls-2" d="M62.25,133.44s14.52,1.76,29.58-7.92"/></g></g></g></g></svg>