<svg xmlns="http://www.w3.org/2000/svg" viewBox="0 0 151 109.99"><defs><style>.cls-1,.cls-3,.cls-4{fill:#fff;}.cls-1,.cls-2,.cls-3,.cls-4{stroke:#fff;}.cls-1,.cls-2,.cls-4{stroke-miterlimit:10;}.cls-2{fill:none;stroke-width:3px;}.cls-4{stroke-width:4px;}</style></defs><title>user_details_icon_1</title><g id="Layer_2" data-name="Layer 2"><g id="User"><g id="user_details_icon"><g id="inner_image"><g id="user_details_siluet"><ellipse class="cls-1" cx="63.21" cy="37.66" rx="13.48" ry="13.14"/><path class="cls-1" d="M82.91,56.35v6.14a19.84,19.84,0,0,0-6.48-1.08A19.19,19.19,0,0,0,57,80.35a18.58,18.58,0,0,0,2.83,9.86H44.55V56.35a4.6,4.6,0,0,1,4.67-4.54h29A4.6,4.6,0,0,1,82.91,56.35Z"/></g><g id="user_details_earth"><path class="cls-2" d="M75.5,94.19V66a14.26,14.26,0,0,0-.3,28.52h.3Z"/><path class="cls-2" d="M73.54,66.13s-7.11,8.91,0,28.39"/><path class="cls-2" d="M70.38,66.93s-11.2,12.29,0,26.67"/><path class="cls-2" d="M65.4,70.11s-7.76,9,0,20.31"/><line class="cls-2" x1="75.5" y1="80.38" x2="61" y2="80.38"/><path class="cls-2" d="M75.5,77S65,76.73,61.22,78.55"/><path class="cls-2" d="M75.5,73.58s-9.17-.1-13.68,2.27"/><path class="cls-2" d="M75.5,70.11a20.55,20.55,0,0,0-12.71,3.47"/><path class="cls-2" d="M75.5,83.42S65,83.7,61.22,81.88"/><path class="cls-2" d="M75.5,86.85s-9.17.1-13.68-2.27"/><path class="cls-2" d="M75.5,90.33a20.6,20.6,0,0,1-12.71-3.48"/><path class="cls-2" d="M75.5,94.19V66a14.26,14.26,0,0,1,.3,28.52h-.3Z"/><path class="cls-2" d="M77.46,66.13s7.11,8.91,0,28.39"/><path class="cls-2" d="M80.62,66.93s11.2,12.29,0,26.67"/><path class="cls-2" d="M85.6,70.11s7.76,9,0,20.31"/><line class="cls-2" x1="75.5" y1="80.38" x2="90" y2="80.38"/><path class="cls-2" d="M75.5,77s10.55-.28,14.28,1.54"/><path class="cls-2" d="M75.5,73.58s9.17-.1,13.68,2.27"/><path class="cls-2" d="M75.5,70.11a20.55,20.55,0,0,1,12.71,3.47"/><path class="cls-2" d="M75.5,83.42s10.55.28,14.28-1.54"/><path class="cls-2" d="M75.5,86.85s9.17.1,13.68-2.27"/><path class="cls-2" d="M75.5,90.33a20.6,20.6,0,0,0,12.71-3.48"/></g></g><g id="inner_text"><path class="cls-3" d="M98.77,81.08a3.71,3.71,0,0,1-1.53-1.63,5.77,5.77,0,0,1-.53-2.57V68.72h1.8v8.22a3.07,3.07,0,0,0,.7,2.16,3,3,0,0,0,4,0,3,3,0,0,0,.71-2.16V68.72h1.79v8.16a5.78,5.78,0,0,1-.52,2.57,3.74,3.74,0,0,1-1.54,1.63,5,5,0,0,1-2.44.55A5,5,0,0,1,98.77,81.08Z"/><path class="cls-3" d="M110.84,81.63l-.71-.15a5.76,5.76,0,0,1-1.32-.48,5.17,5.17,0,0,1-1.14-.79l1.07-1.31a5.64,5.64,0,0,0,1.46.84,4,4,0,0,0,1.45.29,3.07,3.07,0,0,0,1.59-.33,1.1,1.1,0,0,0,.53-1,.74.74,0,0,0-.29-.66,1.57,1.57,0,0,0-.72-.3c-.29,0-.69-.09-1.21-.13h-.44a7,7,0,0,1-1.5-.26,2,2,0,0,1-1-.71,2.35,2.35,0,0,1-.41-1.48,3,3,0,0,1,.4-1.61,2.36,2.36,0,0,1,1.18-1,5.06,5.06,0,0,1,2-.32,6.58,6.58,0,0,1,1.35.13,6.18,6.18,0,0,1,1.24.39,6.11,6.11,0,0,1,1.13.65l-1.08,1.31a5.56,5.56,0,0,0-1.35-.65,4,4,0,0,0-1.29-.22,2.42,2.42,0,0,0-1.37.31,1,1,0,0,0-.46.93.63.63,0,0,0,.26.56,1.52,1.52,0,0,0,.65.24c.27,0,.64.08,1.13.11h.33a7.67,7.67,0,0,1,1.63.25,2.18,2.18,0,0,1,1.13.76,2.6,2.6,0,0,1,.46,1.66,3,3,0,0,1-.42,1.63,2.59,2.59,0,0,1-1.27,1,6,6,0,0,1-2.13.32Z"/><path class="cls-3" d="M120.22,81.63l-.89-.47A3.17,3.17,0,0,1,118,79.77a4.91,4.91,0,0,1-.47-2.22v-1a5.41,5.41,0,0,1,.45-2.31,3.18,3.18,0,0,1,1.32-1.46,4,4,0,0,1,2.07-.5,3.3,3.3,0,0,1,2,.57,3.58,3.58,0,0,1,1.24,1.65,7.17,7.17,0,0,1,.42,2.59v.6h-6.15V76.22h4.45a3.1,3.1,0,0,0-.58-1.74,1.62,1.62,0,0,0-1.33-.62,2,2,0,0,0-1.58.67,2.9,2.9,0,0,0-.56,1.89v1.16a2.36,2.36,0,0,0,.6,1.74,2.27,2.27,0,0,0,1.7.61,2.78,2.78,0,0,0,1.08-.22,3,3,0,0,0,1-.62l1.18,1.18a5,5,0,0,1-1.52,1,4.5,4.5,0,0,1-1.7.35Z"/><path class="cls-3" d="M127.4,72.38h1.8V81.5h-1.8Zm4.42,1.72A2.12,2.12,0,0,0,131,74a1.79,1.79,0,0,0-1.32.47,1.75,1.75,0,0,0-.47,1.31L129,74a3.33,3.33,0,0,1,1.09-1.27,2.61,2.61,0,0,1,1.48-.45,3.39,3.39,0,0,1,1.13.18,2.47,2.47,0,0,1,.88.53l-1.17,1.58A1.56,1.56,0,0,0,131.82,74.1Z"/><path class="cls-3" d="M96.89,90.32h1.79V103.1H96.89ZM98.1,101.4H101a3.08,3.08,0,0,0,2.2-.74,2.74,2.74,0,0,0,.77-2.07V94.83a2.74,2.74,0,0,0-.77-2.07A3.08,3.08,0,0,0,101,92H98.1V90.32h2.84a5.87,5.87,0,0,1,2.63.54,3.8,3.8,0,0,1,1.66,1.56,5.05,5.05,0,0,1,.57,2.48v3.62a5,5,0,0,1-.57,2.48,3.74,3.74,0,0,1-1.67,1.57,6,6,0,0,1-2.63.53H98.1Z"/><path class="cls-3" d="M111,103.23l-.89-.47a3.17,3.17,0,0,1-1.37-1.39,4.91,4.91,0,0,1-.47-2.22v-1a5.41,5.41,0,0,1,.45-2.31A3.24,3.24,0,0,1,110,94.35a4,4,0,0,1,2.07-.5,3.3,3.3,0,0,1,2,.57,3.58,3.58,0,0,1,1.24,1.65,7.17,7.17,0,0,1,.42,2.59v.6h-6.15V97.82H114a3.1,3.1,0,0,0-.58-1.74,1.62,1.62,0,0,0-1.33-.62,2,2,0,0,0-1.58.67A2.9,2.9,0,0,0,110,98v1.16a2.39,2.39,0,0,0,.59,1.74,2.27,2.27,0,0,0,1.7.61,2.78,2.78,0,0,0,1.08-.22,3,3,0,0,0,1-.62l1.18,1.18a5.11,5.11,0,0,1-1.52,1,4.31,4.31,0,0,1-1.7.35Z"/><path class="cls-3" d="M117.47,94h4.12V95.6h-4.12Zm1.46,8.56a2.71,2.71,0,0,1-.52-1.81V91.32h1.8v9.43a.84.84,0,0,0,.13.51.44.44,0,0,0,.38.18h.87v1.71h-1A2,2,0,0,1,118.93,102.54Z"/><path class="cls-3" d="M124.44,102.54a2.65,2.65,0,0,1-.83-2.13,2.57,2.57,0,0,1,.76-2,3.41,3.41,0,0,1,2.31-.67h2.6l.12,1.44h-2.71a1.51,1.51,0,0,0-1,.31,1.22,1.22,0,0,0-.35,1,1.18,1.18,0,0,0,.47,1,2.39,2.39,0,0,0,1.4.33,4,4,0,0,0,1.53-.22.71.71,0,0,0,.51-.68l.18,1.28a2.12,2.12,0,0,1-.58.61,2.5,2.5,0,0,1-.81.36,4.52,4.52,0,0,1-1,.11A3.91,3.91,0,0,1,124.44,102.54Zm4.76-5.22a1.91,1.91,0,0,0-.48-1.39,1.77,1.77,0,0,0-1.36-.5,3.28,3.28,0,0,0-1.07.17,3.11,3.11,0,0,0-.93.46l-1.3-.89a3.46,3.46,0,0,1,1.36-1,5,5,0,0,1,1.89-.34,4.31,4.31,0,0,1,1.94.4,2.71,2.71,0,0,1,1.23,1.16,3.7,3.7,0,0,1,.42,1.83v5.86h-1.7Z"/><path class="cls-3" d="M133.63,90.32h1.79v1.8h-1.79Zm0,3.66h1.79v9.12h-1.79Z"/><path class="cls-3" d="M139.94,100.75a.84.84,0,0,0,.14.51.5.5,0,0,0,.41.18h.84v1.71h-1.05a2,2,0,0,1-1.58-.64,2.6,2.6,0,0,1-.56-1.78V90.32h1.8Z"/><path class="cls-3" d="M145.69,103.23l-.71-.15a5.84,5.84,0,0,1-1.33-.48,5.11,5.11,0,0,1-1.13-.79l1.06-1.31a5.85,5.85,0,0,0,1.47.84,4,4,0,0,0,1.44.29,3.11,3.11,0,0,0,1.6-.33,1.1,1.1,0,0,0,.53-1,.77.77,0,0,0-.29-.66,1.57,1.57,0,0,0-.72-.3c-.29,0-.69-.09-1.21-.13H146a7.13,7.13,0,0,1-1.51-.26,2,2,0,0,1-1-.71,2.35,2.35,0,0,1-.41-1.48,3,3,0,0,1,.4-1.61,2.32,2.32,0,0,1,1.18-1,5.06,5.06,0,0,1,2-.32,6.58,6.58,0,0,1,1.35.13,6.39,6.39,0,0,1,1.24.39,6.11,6.11,0,0,1,1.13.65l-1.08,1.31a6.45,6.45,0,0,0-1.35-.66,4.24,4.24,0,0,0-1.29-.21,2.47,2.47,0,0,0-1.38.31,1.06,1.06,0,0,0-.45.93.63.63,0,0,0,.26.56,1.52,1.52,0,0,0,.65.24c.26,0,.64.08,1.13.11h.33a8.31,8.31,0,0,1,1.63.26,2.18,2.18,0,0,1,1.13.76,2.67,2.67,0,0,1,.46,1.66,3,3,0,0,1-.42,1.63,2.63,2.63,0,0,1-1.27,1,6,6,0,0,1-2.14.32Z"/></g><g id="inner_circle"><path class="cls-4" d="M115.48,42.05A48.46,48.46,0,0,0,69,13.07c-24.15,1-45.44,22.3-46.42,46.44a48.51,48.51,0,0,0,29.2,46.54,1,1,0,0,1-.41,1.91L17,108A15.05,15.05,0,0,1,2,93V17A15,15,0,0,1,17,2h85.15a15.07,15.07,0,0,1,15,14.85l.24,24.79A1,1,0,0,1,115.48,42.05Z"/></g></g></g></g></svg>