<svg xmlns="http://www.w3.org/2000/svg" viewBox="0 -9 74.98 85.92"><defs><style>.cls-1{fill:#fff;}.cls-1,.cls-2,.cls-3{stroke:#fcfcfc;stroke-miterlimit:10;}.cls-1,.cls-2{stroke-width:6px;}.cls-2,.cls-3{fill:none;}.cls-3{stroke-width:4px;}</style></defs><title>Asset 31</title><g id="Layer_2" data-name="Layer 2"><g id="Close"><path class="cls-1" d="M80.54,3H9.46C5.91,3,3,5.66,3,8.9v8.86H87V8.9C87,5.66,84.09,3,80.54,3ZM82,15H69V6h1.85V6h9.69V6H82Z"/><path class="cls-2" d="M87,25.67V61.1c0,3.24-2.91,5.9-6.46,5.9H9.46C5.91,67,3,64.34,3,61.1V25.67Z"/><line class="cls-2" x1="12.69" y1="34.52" x2="32.08" y2="34.52"/><line class="cls-2" x1="12.69" y1="45.38" x2="32.08" y2="45.38"/><line class="cls-2" x1="12.69" y1="55.24" x2="48.23" y2="55.24"/><line class="cls-3" x1="57.92" y1="34.52" x2="57.92" y2="58.14"/><line class="cls-3" x1="74.08" y1="58.14" x2="57.92" y2="58.14"/><line class="cls-3" x1="74.08" y1="34.52" x2="74.08" y2="58.14"/><line class="cls-3" x1="57.92" y1="34.52" x2="74.08" y2="34.52"/></g></g></svg>