<svg xmlns="http://www.w3.org/2000/svg" viewBox="0 0 80.57 82.08"><defs><style>.z-cls-1,.z-cls-3,.z-cls-4{fill: transparent;;}.z-cls-1,.z-cls-2,.z-cls-3,.z-cls-4{stroke:#fff;stroke-miterlimit:10;}.z-cls-1,.z-cls-2{stroke-width:5px;}.z-cls-3{stroke-width:6px;}.z-cls-4{stroke-width:12px;}</style></defs><title>zoom_dataset_icon</title><g id="Layer_2" data-name="Layer 2"><g id="Search_point" data-name="Search point"><g id="points"><ellipse class="z-cls-1" cx="48.27" cy="58.8" rx="5.04" ry="4.96"/><ellipse class="z-cls-1" cx="73.48" cy="59.25" rx="4.58" ry="4.51"/><ellipse class="z-cls-1" cx="60.65" cy="44.81" rx="5.5" ry="5.41"/><line class="z-cls-2" x1="52.12" y1="55.59" x2="57.55" y2="49.28"/><line class="z-cls-2" x1="64.42" y1="48.75" x2="70.8" y2="55.59"/></g><path class="z-cls-3" d="M58.16,23.11A20.31,20.31,0,0,1,37.64,43.22a20.72,20.72,0,0,1-12.88-4.45,19.93,19.93,0,0,1-7.64-15.66A20.32,20.32,0,0,1,37.64,3,20.31,20.31,0,0,1,58.16,23.11Z"/><line class="z-cls-4" x1="5.19" y1="79.08" x2="28.3" y2="39.11"/><line class="z-cls-3" x1="38.12" y1="14.3" x2="38.12" y2="32.75"/><line class="z-cls-3" x1="28.71" y1="23.52" x2="47.53" y2="23.52"/></g></g></svg>